<?xml version="1.0" encoding="UTF-8"?>
<svg width="684px" height="107px" viewBox="0 0 684 107" version="1.1" xmlns="http://www.w3.org/2000/svg" xmlns:xlink="http://www.w3.org/1999/xlink">
    <!-- Generator: Sketch 63 (92445) - https://sketch.com -->
    <title>chrisingram</title>
    <desc>Created with Sketch.</desc>
    <g id="Page-1" stroke="none" stroke-width="1" fill="none" fill-rule="evenodd">
        <g id="Custom-Preset-Copy-5" transform="translate(-2.000000, 0.000000)" fill="#0E1520" fill-rule="nonzero">
            <path d="M30.89,83.1 C37.49,83.1 42.99,81.89 47.39,79.47 C51.79,77.05 54.9983333,74.245 57.015,71.055 C59.0316667,67.865 60.04,65.1333333 60.04,62.86 C60.04,62.1266667 59.7466667,61.5033333 59.16,60.99 C58.5733333,60.4766667 57.9133333,60.22 57.18,60.22 L57.18,60.22 L42.44,60.22 C41.6333333,60.22 41.01,60.4033333 40.57,60.77 C40.13,61.1366667 39.7266667,61.7233333 39.36,62.53 C38.5533333,64.6566667 37.545,66.1783333 36.335,67.095 C35.125,68.0116667 33.4566667,68.47 31.33,68.47 C28.47,68.47 26.3066667,67.5716667 24.84,65.775 C23.3733333,63.9783333 22.6033333,61.1733333 22.53,57.36 L22.53,57.36 L22.42,53.73 L22.53,49.55 C22.75,42.07 25.6833333,38.33 31.33,38.33 C33.31,38.33 34.9416667,38.8066667 36.225,39.76 C37.5083333,40.7133333 38.5533333,42.2166667 39.36,44.27 C39.7266667,45.0766667 40.13,45.6633333 40.57,46.03 C41.01,46.3966667 41.6333333,46.58 42.44,46.58 L42.44,46.58 L57.18,46.58 C57.9866667,46.58 58.6833333,46.305 59.27,45.755 C59.8566667,45.205 60.1133333,44.5266667 60.04,43.72 C59.8933333,41.1533333 58.7566667,38.3116667 56.63,35.195 C54.5033333,32.0783333 51.2766667,29.3833333 46.95,27.11 C42.6233333,24.8366667 37.27,23.7 30.89,23.7 C22.53,23.7 15.7466667,25.9366667 10.54,30.41 C5.33333333,34.8833333 2.58333333,41.08 2.29,49 L2.29,49 L2.18,53.51 L2.29,57.91 C2.65666667,65.83 5.425,72.0083333 10.595,76.445 C15.765,80.8816667 22.53,83.1 30.89,83.1 Z M87.21,82 C88.0166667,82 88.695,81.7433333 89.245,81.23 C89.795,80.7166667 90.07,80.0566667 90.07,79.25 L90.07,79.25 L90.07,49.22 C90.07,45.9933333 90.9133333,43.4816667 92.6,41.685 C94.2866667,39.8883333 96.5966667,38.99 99.53,38.99 C102.536667,38.99 104.846667,39.8883333 106.46,41.685 C108.073333,43.4816667 108.88,45.9933333 108.88,49.22 L108.88,49.22 L108.88,79.25 C108.88,79.9833333 109.155,80.625 109.705,81.175 C110.255,81.725 110.896667,82 111.63,82 L111.63,82 L126.59,82 C127.396667,82 128.075,81.7433333 128.625,81.23 C129.175,80.7166667 129.45,80.0566667 129.45,79.25 L129.45,79.25 L129.45,48.56 C129.45,43.28 128.496667,38.77 126.59,35.03 C124.683333,31.29 122.043333,28.4666667 118.67,26.56 C115.296667,24.6533333 111.52,23.7 107.34,23.7 C100.08,23.7 94.3233333,26.1933333 90.07,31.18 L90.07,31.18 L90.07,6.65 C90.07,5.84333333 89.795,5.18333333 89.245,4.67 C88.695,4.15666667 88.0166667,3.9 87.21,3.9 L87.21,3.9 L72.36,3.9 C71.5533333,3.9 70.875,4.15666667 70.325,4.67 C69.775,5.18333333 69.5,5.84333333 69.5,6.65 L69.5,6.65 L69.5,79.25 C69.5,80.0566667 69.775,80.7166667 70.325,81.23 C70.875,81.7433333 71.5533333,82 72.36,82 L72.36,82 L87.21,82 Z M158.71,82 C159.516667,82 160.195,81.7433333 160.745,81.23 C161.295,80.7166667 161.57,80.0566667 161.57,79.25 L161.57,79.25 L161.57,51.53 C161.57,48.5966667 162.358333,46.3233333 163.935,44.71 C165.511667,43.0966667 167.766667,42.29 170.7,42.29 L170.7,42.29 L181.81,42.29 C182.616667,42.29 183.276667,42.015 183.79,41.465 C184.303333,40.915 184.56,40.2733333 184.56,39.54 L184.56,39.54 L184.56,27.55 C184.56,26.7433333 184.303333,26.0833333 183.79,25.57 C183.276667,25.0566667 182.616667,24.8 181.81,24.8 L181.81,24.8 L176.86,24.8 C173.486667,24.8 170.425,25.405 167.675,26.615 C164.925,27.825 162.523333,29.5666667 160.47,31.84 L160.47,31.84 L160.47,27.66 C160.47,26.8533333 160.195,26.175 159.645,25.625 C159.095,25.075 158.416667,24.8 157.61,24.8 L157.61,24.8 L144.19,24.8 C143.383333,24.8 142.723333,25.075 142.21,25.625 C141.696667,26.175 141.44,26.8533333 141.44,27.66 L141.44,27.66 L141.44,79.25 C141.44,79.9833333 141.715,80.625 142.265,81.175 C142.815,81.725 143.456667,82 144.19,82 L144.19,82 L158.71,82 Z M208.65,16.88 C209.456667,16.88 210.135,16.605 210.685,16.055 C211.235,15.505 211.51,14.8266667 211.51,14.02 L211.51,14.02 L211.51,3.79 C211.51,2.98333333 211.235,2.305 210.685,1.755 C210.135,1.205 209.456667,0.93 208.65,0.93 L208.65,0.93 L194.9,0.93 C194.166667,0.93 193.525,1.205 192.975,1.755 C192.425,2.305 192.15,2.98333333 192.15,3.79 L192.15,3.79 L192.15,14.02 C192.15,14.8266667 192.406667,15.505 192.92,16.055 C193.433333,16.605 194.093333,16.88 194.9,16.88 L194.9,16.88 L208.65,16.88 Z M208.65,82 C209.456667,82 210.135,81.7433333 210.685,81.23 C211.235,80.7166667 211.51,80.0566667 211.51,79.25 L211.51,79.25 L211.51,27.55 C211.51,26.7433333 211.235,26.0833333 210.685,25.57 C210.135,25.0566667 209.456667,24.8 208.65,24.8 L208.65,24.8 L194.9,24.8 C194.166667,24.8 193.525,25.0566667 192.975,25.57 C192.425,26.0833333 192.15,26.7433333 192.15,27.55 L192.15,27.55 L192.15,79.25 C192.15,79.9833333 192.425,80.625 192.975,81.175 C193.525,81.725 194.166667,82 194.9,82 L194.9,82 L208.65,82 Z M248.03,83.1 C256.83,83.1 263.668333,81.4683333 268.545,78.205 C273.421667,74.9416667 275.86,70.56 275.86,65.06 C275.86,60.8066667 274.228333,57.085 270.965,53.895 C267.701667,50.705 262.476667,48.4866667 255.29,47.24 C251.33,46.5066667 248.378333,45.81 246.435,45.15 C244.491667,44.49 243.208333,43.8116667 242.585,43.115 C241.961667,42.4183333 241.65,41.52 241.65,40.42 C241.65,39.1733333 242.163333,38.1466667 243.19,37.34 C244.216667,36.5333333 245.646667,36.13 247.48,36.13 C249.02,36.13 250.285,36.3683333 251.275,36.845 C252.265,37.3216667 253.42,38 254.74,38.88 C255.62,39.54 256.5,40.09 257.38,40.53 C257.746667,40.8233333 258.26,40.97 258.92,40.97 L258.92,40.97 L271.02,40.97 C271.68,40.97 272.248333,40.7133333 272.725,40.2 C273.201667,39.6866667 273.44,39.1 273.44,38.44 C273.44,36.5333333 272.413333,34.425 270.36,32.115 C268.306667,29.805 265.318333,27.825 261.395,26.175 C257.471667,24.525 252.833333,23.7 247.48,23.7 C242.2,23.7 237.671667,24.5433333 233.895,26.23 C230.118333,27.9166667 227.258333,30.135 225.315,32.885 C223.371667,35.635 222.4,38.5133333 222.4,41.52 C222.4,50.6866667 228.743333,56.5533333 241.43,59.12 C245.39,59.8533333 248.341667,60.5683333 250.285,61.265 C252.228333,61.9616667 253.548333,62.6766667 254.245,63.41 C254.941667,64.1433333 255.29,65.0966667 255.29,66.27 C255.29,67.6633333 254.648333,68.745 253.365,69.515 C252.081667,70.285 250.45,70.67 248.47,70.67 C246.783333,70.67 245.335,70.395 244.125,69.845 C242.915,69.295 241.613333,68.5066667 240.22,67.48 C240.073333,67.3333333 239.376667,66.8566667 238.13,66.05 C237.836667,65.7566667 237.47,65.61 237.03,65.61 L237.03,65.61 L223.72,65.61 C223.06,65.61 222.455,65.8483333 221.905,66.325 C221.355,66.8016667 221.08,67.4066667 221.08,68.14 C221.08,70.0466667 222.051667,72.1733333 223.995,74.52 C225.938333,76.8666667 228.926667,78.8833333 232.96,80.57 C236.993333,82.2566667 242.016667,83.1 248.03,83.1 Z M324.92,16.88 C325.726667,16.88 326.405,16.605 326.955,16.055 C327.505,15.505 327.78,14.8266667 327.78,14.02 L327.78,14.02 L327.78,3.79 C327.78,2.98333333 327.505,2.305 326.955,1.755 C326.405,1.205 325.726667,0.93 324.92,0.93 L324.92,0.93 L311.17,0.93 C310.436667,0.93 309.795,1.205 309.245,1.755 C308.695,2.305 308.42,2.98333333 308.42,3.79 L308.42,3.79 L308.42,14.02 C308.42,14.8266667 308.676667,15.505 309.19,16.055 C309.703333,16.605 310.363333,16.88 311.17,16.88 L311.17,16.88 L324.92,16.88 Z M324.92,82 C325.726667,82 326.405,81.7433333 326.955,81.23 C327.505,80.7166667 327.78,80.0566667 327.78,79.25 L327.78,79.25 L327.78,27.55 C327.78,26.7433333 327.505,26.0833333 326.955,25.57 C326.405,25.0566667 325.726667,24.8 324.92,24.8 L324.92,24.8 L311.17,24.8 C310.436667,24.8 309.795,25.0566667 309.245,25.57 C308.695,26.0833333 308.42,26.7433333 308.42,27.55 L308.42,27.55 L308.42,79.25 C308.42,79.9833333 308.695,80.625 309.245,81.175 C309.795,81.725 310.436667,82 311.17,82 L311.17,82 L324.92,82 Z M357.7,82 C358.506667,82 359.166667,81.725 359.68,81.175 C360.193333,80.625 360.45,79.9833333 360.45,79.25 L360.45,79.25 L360.45,49.22 C360.45,45.9933333 361.293333,43.4816667 362.98,41.685 C364.666667,39.8883333 366.976667,38.99 369.91,38.99 C372.916667,38.99 375.208333,39.87 376.785,41.63 C378.361667,43.39 379.15,45.92 379.15,49.22 L379.15,49.22 L379.15,79.25 C379.15,80.0566667 379.425,80.7166667 379.975,81.23 C380.525,81.7433333 381.203333,82 382.01,82 L382.01,82 L396.64,82 C397.446667,82 398.106667,81.725 398.62,81.175 C399.133333,80.625 399.39,79.9833333 399.39,79.25 L399.39,79.25 L399.39,48.56 C399.39,43.28 398.455,38.77 396.585,35.03 C394.715,31.29 392.148333,28.4666667 388.885,26.56 C385.621667,24.6533333 381.9,23.7 377.72,23.7 C373.686667,23.7 370.111667,24.4333333 366.995,25.9 C363.878333,27.3666667 361.33,29.31 359.35,31.73 L359.35,31.73 L359.35,27.55 C359.35,26.7433333 359.093333,26.0833333 358.58,25.57 C358.066667,25.0566667 357.406667,24.8 356.6,24.8 L356.6,24.8 L343.07,24.8 C342.336667,24.8 341.695,25.0566667 341.145,25.57 C340.595,26.0833333 340.32,26.7433333 340.32,27.55 L340.32,27.55 L340.32,79.25 C340.32,79.9833333 340.595,80.625 341.145,81.175 C341.695,81.725 342.336667,82 343.07,82 L343.07,82 L357.7,82 Z M439.98,106.2 C449.146667,106.2 456.26,104 461.32,99.6 C466.38,95.2 468.91,88.7833333 468.91,80.35 L468.91,80.35 L468.91,27.66 C468.91,26.8533333 468.635,26.175 468.085,25.625 C467.535,25.075 466.856667,24.8 466.05,24.8 L466.05,24.8 L452.63,24.8 C451.823333,24.8 451.163333,25.075 450.65,25.625 C450.136667,26.175 449.88,26.8533333 449.88,27.66 L449.88,27.66 L449.88,31.62 C447.973333,29.2 445.59,27.275 442.73,25.845 C439.87,24.415 436.57,23.7 432.83,23.7 C425.13,23.7 419.281667,26.23 415.285,31.29 C411.288333,36.35 409.29,43.3533333 409.29,52.3 L409.29,52.3 L409.4,55.27 C409.766667,63.63 411.911667,69.955 415.835,74.245 C419.758333,78.535 425.423333,80.68 432.83,80.68 C439.576667,80.68 444.893333,78.6633333 448.78,74.63 L448.78,74.63 L448.78,82 C448.78,85.6666667 448.01,88.2883333 446.47,89.865 C444.93,91.4416667 442.583333,92.23 439.43,92.23 C436.936667,92.23 435.103333,91.7716667 433.93,90.855 C432.756667,89.9383333 431.803333,88.6733333 431.07,87.06 C430.703333,86.2533333 430.3,85.685 429.86,85.355 C429.42,85.025 428.833333,84.86 428.1,84.86 L428.1,84.86 L413.36,84.86 C412.626667,84.86 411.966667,85.1166667 411.38,85.63 C410.793333,86.1433333 410.5,86.7666667 410.5,87.5 C410.5,89.48 411.453333,91.955 413.36,94.925 C415.266667,97.895 418.42,100.516667 422.82,102.79 C427.22,105.063333 432.94,106.2 439.98,106.2 Z M439.1,65.83 C435.506667,65.83 433.013333,64.6383333 431.62,62.255 C430.226667,59.8716667 429.53,56.59 429.53,52.41 L429.53,52.41 L429.64,49.99 C429.786667,46.5433333 430.593333,43.8483333 432.06,41.905 C433.526667,39.9616667 435.873333,38.99 439.1,38.99 C442.253333,38.99 444.6,39.925 446.14,41.795 C447.68,43.665 448.56,46.1033333 448.78,49.11 C448.853333,49.55 448.89,50.65 448.89,52.41 C448.89,54.0966667 448.853333,55.1966667 448.78,55.71 C448.56,58.6433333 447.68,61.0633333 446.14,62.97 C444.6,64.8766667 442.253333,65.83 439.1,65.83 Z M498.83,82 C499.636667,82 500.315,81.7433333 500.865,81.23 C501.415,80.7166667 501.69,80.0566667 501.69,79.25 L501.69,79.25 L501.69,51.53 C501.69,48.5966667 502.478333,46.3233333 504.055,44.71 C505.631667,43.0966667 507.886667,42.29 510.82,42.29 L510.82,42.29 L521.93,42.29 C522.736667,42.29 523.396667,42.015 523.91,41.465 C524.423333,40.915 524.68,40.2733333 524.68,39.54 L524.68,39.54 L524.68,27.55 C524.68,26.7433333 524.423333,26.0833333 523.91,25.57 C523.396667,25.0566667 522.736667,24.8 521.93,24.8 L521.93,24.8 L516.98,24.8 C513.606667,24.8 510.545,25.405 507.795,26.615 C505.045,27.825 502.643333,29.5666667 500.59,31.84 L500.59,31.84 L500.59,27.66 C500.59,26.8533333 500.315,26.175 499.765,25.625 C499.215,25.075 498.536667,24.8 497.73,24.8 L497.73,24.8 L484.31,24.8 C483.503333,24.8 482.843333,25.075 482.33,25.625 C481.816667,26.175 481.56,26.8533333 481.56,27.66 L481.56,27.66 L481.56,79.25 C481.56,79.9833333 481.835,80.625 482.385,81.175 C482.935,81.725 483.576667,82 484.31,82 L484.31,82 L498.83,82 Z M548.55,83.1 C552.51,83.1 555.92,82.385 558.78,80.955 C561.64,79.525 563.876667,77.6733333 565.49,75.4 L565.49,75.4 L565.49,79.25 C565.49,79.9833333 565.765,80.625 566.315,81.175 C566.865,81.725 567.506667,82 568.24,82 L568.24,82 L581.77,82 C582.576667,82 583.236667,81.725 583.75,81.175 C584.263333,80.625 584.52,79.9833333 584.52,79.25 L584.52,79.25 L584.52,45.92 C584.52,39.1 582.32,33.6916667 577.92,29.695 C573.52,25.6983333 566.773333,23.7 557.68,23.7 C551.96,23.7 547.156667,24.58 543.27,26.34 C539.383333,28.1 536.486667,30.2083333 534.58,32.665 C532.673333,35.1216667 531.683333,37.34 531.61,39.32 C531.536667,39.98 531.738333,40.5483333 532.215,41.025 C532.691667,41.5016667 533.296667,41.74 534.03,41.74 L534.03,41.74 L546.79,41.74 C547.23,41.74 547.596667,41.4833333 547.89,40.97 C548.623333,40.6033333 549.466667,40.0166667 550.42,39.21 C551.666667,38.1833333 552.785,37.4133333 553.775,36.9 C554.765,36.3866667 555.993333,36.13 557.46,36.13 C560.1,36.13 561.97,36.7533333 563.07,38 C564.17,39.2466667 564.72,41.2266667 564.72,43.94 L564.72,43.94 L564.72,45.26 L551.08,47.35 C543.82,48.5233333 538.118333,50.6683333 533.975,53.785 C529.831667,56.9016667 527.76,60.9533333 527.76,65.94 C527.76,69.0933333 528.658333,71.99 530.455,74.63 C532.251667,77.27 534.745,79.3416667 537.935,80.845 C541.125,82.3483333 544.663333,83.1 548.55,83.1 Z M554.05,70.12 C551.923333,70.12 550.145,69.6066667 548.715,68.58 C547.285,67.5533333 546.57,66.1966667 546.57,64.51 C546.57,61.2833333 549.65,59.0833333 555.81,57.91 L555.81,57.91 L564.94,56.37 L564.94,57.69 C564.94,61.7233333 563.931667,64.8033333 561.915,66.93 C559.898333,69.0566667 557.276667,70.12 554.05,70.12 Z M613.12,82 C613.926667,82 614.586667,81.725 615.1,81.175 C615.613333,80.625 615.87,79.9833333 615.87,79.25 L615.87,79.25 L615.87,48.67 C615.87,45.37 616.603333,42.9316667 618.07,41.355 C619.536667,39.7783333 621.406667,38.99 623.68,38.99 C626.026667,38.99 627.933333,39.7783333 629.4,41.355 C630.866667,42.9316667 631.6,45.4066667 631.6,48.78 L631.6,48.78 L631.6,79.25 C631.6,80.0566667 631.875,80.7166667 632.425,81.23 C632.975,81.7433333 633.653333,82 634.46,82 L634.46,82 L647.99,82 C648.796667,82 649.456667,81.725 649.97,81.175 C650.483333,80.625 650.74,79.9833333 650.74,79.25 L650.74,79.25 L650.74,48.78 C650.74,45.4066667 651.455,42.9316667 652.885,41.355 C654.315,39.7783333 656.166667,38.99 658.44,38.99 C660.86,38.99 662.785,39.7783333 664.215,41.355 C665.645,42.9316667 666.36,45.4066667 666.36,48.78 L666.36,48.78 L666.36,79.25 C666.36,80.0566667 666.635,80.7166667 667.185,81.23 C667.735,81.7433333 668.413333,82 669.22,82 L669.22,82 L682.75,82 C683.556667,82 684.216667,81.725 684.73,81.175 C685.243333,80.625 685.5,79.9833333 685.5,79.25 L685.5,79.25 L685.5,48.01 C685.5,39.9433333 683.611667,33.875 679.835,29.805 C676.058333,25.735 671.163333,23.7 665.15,23.7 C661.556667,23.7 658.183333,24.58 655.03,26.34 C651.876667,28.1 649.42,30.3733333 647.66,33.16 C644.653333,26.8533333 639.116667,23.7 631.05,23.7 C627.53,23.7 624.376667,24.4333333 621.59,25.9 C618.803333,27.3666667 616.53,29.1633333 614.77,31.29 L614.77,31.29 L614.77,27.55 C614.77,26.7433333 614.513333,26.0833333 614,25.57 C613.486667,25.0566667 612.826667,24.8 612.02,24.8 L612.02,24.8 L599.26,24.8 C598.526667,24.8 597.885,25.0566667 597.335,25.57 C596.785,26.0833333 596.51,26.7433333 596.51,27.55 L596.51,27.55 L596.51,79.25 C596.51,79.9833333 596.785,80.625 597.335,81.175 C597.885,81.725 598.526667,82 599.26,82 L599.26,82 L613.12,82 Z" id="chrisingram"></path>
        </g>
    </g>
</svg>