<svg width="23" height="16" viewBox="0 0 23 16" fill="none" xmlns="http://www.w3.org/2000/svg">
<path d="M21.8718 7.69069L15.3093 1.12818C15.1384 0.957272 14.8615 0.957272 14.6907 1.12818C14.5198 1.2991 14.5198 1.57595 14.6907 1.74682L20.5064 7.56251H1.43751C1.19569 7.56251 1 7.7582 1 8.00003C1 8.24185 1.19569 8.43754 1.43751 8.43754H20.5064L14.6907 14.2532C14.5198 14.4241 14.5198 14.701 14.6907 14.8718C14.7761 14.9573 14.8881 15 15 15C15.1119 15 15.2239 14.9573 15.3094 14.8718L21.8719 8.30932C22.0427 8.13845 22.0427 7.8616 21.8718 7.69069Z" fill="white" stroke="white" stroke-width="0.4"/>
</svg>