<svg width="15" height="22" viewBox="0 0 15 22" fill="none" xmlns="http://www.w3.org/2000/svg">
<path d="M7.80931 21.3718L14.3718 14.8093C14.5427 14.6384 14.5427 14.3615 14.3718 14.1907C14.2009 14.0198 13.924 14.0198 13.7532 14.1907L7.93749 20.0064L7.93749 0.937513C7.93749 0.695685 7.7418 0.5 7.49997 0.5C7.25815 0.5 7.06246 0.695685 7.06246 0.937513L7.06246 20.0064L1.24681 14.1907C1.0759 14.0198 0.799045 14.0198 0.628173 14.1907C0.542738 14.2761 0.499999 14.3881 0.499999 14.5C0.499999 14.6119 0.542738 14.7239 0.628173 14.8094L7.19067 21.3719C7.36155 21.5427 7.6384 21.5427 7.80931 21.3718Z" fill="white" stroke="white" stroke-width="0.4"/>
</svg>
