<svg viewBox="0 0 188 45" fill="none" xmlns="http://www.w3.org/2000/svg">
<path d="M116.345 24.8176C116.345 25.2943 116.345 25.7711 116.438 26.2478C116.625 33.2078 122.229 33.2078 127.646 33.2078H128.207C134.932 32.5404 134.651 26.0571 134.371 20.3365C134.371 19.8598 134.371 19.2877 134.278 18.811C134.184 16.6181 133.531 14.9972 132.316 13.8531C130.542 12.2323 127.74 11.8509 125.124 11.8509C124.19 11.8509 123.35 11.8509 122.509 11.9462C115.784 12.3276 116.065 19.2877 116.345 24.8176ZM122.509 14.4252C123.443 14.2345 126.339 14.4252 126.712 14.4252C129.701 14.4252 131.382 15.76 131.756 18.5249C132.783 25.6757 131.102 28.536 130.542 29.2034C129.888 29.9662 129.141 30.4429 128.207 30.5382C128.207 30.5382 125.498 30.6336 125.031 30.6336C122.136 30.6336 119.427 30.1569 118.96 26.2478C118.586 23.5781 117.652 15.1879 122.509 14.4252ZM106.911 10.0394C106.725 9.56266 106.444 9.18128 106.071 8.79991L105.791 8.60922L97.291 1.64915C96.4504 0.886397 95.2362 0.791054 94.2088 1.36311L82.7205 7.36976L78.9844 9.37197C78.1438 9.84869 77.5834 10.7068 77.5834 11.7556V33.4939C77.5834 34.4473 77.957 35.3054 78.6108 35.9728L86.6433 44.1723C87.1103 44.6491 87.6707 44.9351 88.3245 45.0304C88.8849 45.1258 89.5387 44.9351 90.0992 44.6491L105.604 35.4007C106.538 34.8287 107.098 33.8752 107.098 32.7311V10.8975C107.005 10.6114 107.005 10.3254 106.911 10.0394ZM103.922 30.5382C103.922 31.9684 103.269 32.9218 102.335 33.3032C100.56 33.9706 100.56 32.5404 100.56 32.1591V17.0948C100.093 17.3808 93.7418 21.862 92.3408 22.8154C91.5936 23.3875 91.0332 23.7688 90.4728 23.7688C90.1926 23.7688 90.0058 23.6735 89.7255 23.5782C89.4454 23.3875 89.0717 23.1014 88.6981 22.7201C87.2971 21.2899 84.9621 18.2389 84.4951 17.5715C84.4951 17.7622 84.4951 31.7777 84.4017 32.0637C84.3083 33.0172 83.7479 33.3032 83.1875 33.3032C81.8799 33.3032 80.8525 31.6823 80.8525 30.6336V13.9485C80.8525 13.6624 81.0393 12.0416 81.8799 11.5649C82.2535 11.3742 83.4677 11.4695 83.8413 11.9462C84.9621 13.0904 89.0717 17.8575 90.6596 19.7644C92.5276 18.1436 100.56 12.2323 100.84 12.0416C101.214 11.7556 101.868 11.5649 102.428 11.4695C102.988 11.4695 103.362 11.7556 103.549 12.1369C103.829 12.5183 103.922 12.995 103.922 13.2811C104.016 19.5737 103.922 24.913 103.922 30.5382ZM153.238 28.6314C153.238 28.6314 147.821 16.7134 145.953 12.6136C145.766 12.1369 145.392 11.9462 145.019 11.9462C144.832 11.9462 144.645 12.0416 144.458 12.0416C143.805 12.3276 143.338 13.0904 143.711 13.9485C146.513 20.0504 149.222 26.1524 152.024 32.2544C152.211 32.7311 152.678 32.8265 153.051 32.8265C153.518 32.8265 153.985 32.5404 154.172 32.2544C157.068 26.1524 160.056 20.0504 162.952 13.9485C163.325 13.1857 162.858 12.423 162.298 12.1369C161.831 11.9462 161.177 11.8509 160.804 12.6136L153.238 28.6314ZM186.209 30.6336C185.275 30.8243 178.923 31.0149 176.962 30.6336C175.374 30.3475 174.907 29.9662 174.72 28.3453C174.534 27.1059 174.72 22.2433 174.72 22.2433H182.473C183.313 22.2433 183.687 21.5759 183.687 20.9085C183.687 20.2411 183.313 19.5737 182.473 19.5737H174.534C174.534 16.6181 174.627 14.9019 176.775 14.6159C178.83 14.2345 185.275 14.6159 186.209 14.6159C187.049 14.6159 187.423 13.9485 187.423 13.2811C187.423 12.6136 187.049 11.9462 186.209 11.9462C185.088 11.9462 176.682 11.7556 175.561 12.0416C171.732 12.8043 172.105 17.0948 172.105 20.6225V24.5316C172.105 28.0593 171.732 32.4451 175.561 33.1125C177.896 33.4939 185.181 33.2078 186.209 33.2078C187.049 33.2078 187.423 32.5404 187.423 31.873C187.423 31.301 187.049 30.5382 186.209 30.6336ZM0.621094 14.1391V31.873C0.621094 32.1591 0.714495 32.4451 0.901296 32.7311L1.0881 32.9218C1.3683 33.1125 1.5551 33.3032 1.92871 33.3032H10.5216C14.351 33.2078 16.1256 31.3963 16.1256 27.3919C16.1256 25.3897 15.6586 23.9595 14.7246 22.9107L14.5378 22.7201L14.7246 22.5294C15.6586 21.5759 16.1256 20.1458 16.1256 18.0482C16.1256 14.0438 14.351 12.2323 10.615 12.1369H1.92871C1.5551 12.1369 1.2749 12.2323 0.994697 12.5183C0.714495 12.709 0.621094 13.9485 0.621094 14.1391H0.621094ZM3.14292 14.6159H10.8952C13.3236 14.7112 13.5104 16.1414 13.5104 17.9529C13.5104 19.8598 13.3236 21.1946 10.8952 21.2899H3.04952V14.6159H3.14292ZM3.14292 23.8642H10.8952C13.3236 23.9595 13.5104 25.3897 13.5104 27.2012C13.5104 29.1081 13.3236 30.4429 10.8952 30.5382H3.04952V23.8642H3.14292ZM25.2789 24.7223C25.2789 25.199 25.2789 25.6757 25.3723 26.1524C25.5591 33.1125 31.1632 33.1125 36.5804 33.1125H37.1408C43.8657 32.4451 43.5855 25.9617 43.3053 20.2411C43.3053 19.7644 43.3053 19.1924 43.2119 18.7156C43.1185 16.5227 42.4647 14.9019 41.2505 13.7578C39.4759 12.1369 36.6738 11.7556 34.0586 11.7556C33.1246 11.7556 32.284 11.7556 31.4434 11.8509C24.8119 12.2323 25.0921 19.1923 25.2789 24.7223ZM31.4434 14.3298C32.3774 14.1391 35.2728 14.3298 35.6464 14.3298C38.6353 14.3298 40.3165 15.6646 40.6901 18.4296C41.7175 25.5804 40.0363 28.4407 39.4759 29.1081C38.8221 29.8708 38.0749 30.3475 37.1408 30.4429C37.1408 30.4429 34.4322 30.5382 33.9652 30.5382C31.0698 30.5382 28.3612 30.0615 27.8942 26.1524C27.5206 23.4828 26.5865 15.0926 31.4434 14.3298ZM54.6068 32.9218C54.887 32.9218 55.4474 32.9218 55.821 32.3498L60.9581 24.8176L66.0951 32.3498C66.5621 33.1125 67.4961 33.0172 68.0565 32.6358C68.5235 32.3498 68.8037 31.7777 68.3367 31.1103L62.4525 22.5294L68.3367 13.9485C68.6169 13.5671 68.6169 13.1857 68.4301 12.8997C68.2433 12.5183 67.7763 12.1369 67.2159 12.1369C66.9357 12.1369 66.3753 12.1369 66.0017 12.709C64.3205 15.0926 60.8647 20.2411 60.8647 20.2411L55.7276 12.709C55.4474 12.3276 55.0738 12.1369 54.7002 12.1369C54.42 12.1369 54.0464 12.2323 53.8596 12.423C53.3926 12.709 53.1124 13.2811 53.5794 13.9485L59.4637 22.5294L53.5794 31.1103C53.2992 31.4917 53.2992 31.873 53.486 32.1591C53.5794 32.5404 54.1398 32.8265 54.6068 32.9218Z" fill="white"/>
</svg>