<svg viewBox="0 0 124 62" fill="none" xmlns="http://www.w3.org/2000/svg">
<path d="M57.2097 15.1826H53.136V0.419163H57.2097V5.55216H62.0688V0.419163H66.1425V15.1826H62.0688V9.21859H57.2097V15.1826ZM67.2223 10.9785C66.1425 8.43642 66.4861 5.20996 68.1548 2.96122C69.8727 0.712477 72.8666 -0.167466 75.6152 0.125848C78.3637 0.419163 80.8178 2.03239 81.8976 4.62333C82.9774 7.16539 82.6338 10.3918 80.965 12.6406C79.2472 14.8893 76.2532 15.7693 73.5047 15.476C70.7561 15.1826 68.3021 13.5694 67.2223 10.9785C66.8296 10.0496 67.6149 11.9073 67.2223 10.9785ZM71.0997 9.41413C71.8359 11.4184 74.2409 12.2495 76.1551 11.4184C78.1674 10.5874 78.8055 8.14311 78.1183 6.18768C77.3821 4.18336 74.9771 3.35231 73.063 4.13448C71.0506 5.01442 70.3635 7.4587 71.0997 9.41413C71.2469 9.8541 70.9034 8.92528 71.0997 9.41413ZM89.2107 15.1826L91.9101 6.77431L94.6096 15.1826H98.0453L102.364 0.419163H98.1926L96.2293 8.19199L93.7752 0.419163H90.1923L87.7382 7.94756L85.8732 0.419163H81.5049L85.8732 15.1826H89.2107ZM110.021 15.1826H105.555L111.935 0.419163H115.126L121.555 15.1826H116.991L115.813 12.2984H111.15L110.021 15.1826ZM114.389 8.68085L113.457 6.28545L112.524 8.68085H114.389ZM68.4493 46.3717L66.5351 53.9001L64.1302 46.3717H60.6945L58.2895 53.7046L56.4735 46.3717H52.2034L56.4735 60.6952H59.7129L62.3142 52.5313L64.9155 60.6952H68.253L72.474 46.3717H68.4493ZM99.9595 60.6952V46.3717H103.886V51.1625L108.352 46.3717H113.555L107.125 53.0691L112.181 58.642L114.782 55.7578L115.126 56.2466C115.911 57.3221 117.089 57.4199 117.923 57.2244C118.365 57.1266 118.561 56.9799 118.758 56.7355C118.856 56.54 118.954 56.1 118.561 55.8556C117.58 55.0734 115.469 54.8778 114.438 54.1446C113.948 53.8024 113.506 53.4602 113.113 52.9224C112.524 52.1402 112.279 50.1359 113.064 48.7671C113.653 47.6916 114.586 46.7628 116.107 46.3717C117.531 45.9806 119.101 45.9806 120.475 46.4206C121.261 46.6651 121.948 47.0561 122.586 47.5939L122.979 47.9361L120.23 50.9181L119.886 50.4781C119.494 50.0382 118.709 49.6471 117.58 49.8426C117.138 49.9404 116.794 50.1848 116.745 50.2826C116.549 50.5759 116.647 51.0159 116.893 51.1625C117.138 51.3581 117.481 51.5047 117.923 51.6514C118.807 51.8958 120.181 52.2869 120.966 52.7758C121.506 53.0691 121.948 53.509 122.291 54.0468C122.635 54.5845 122.831 55.3178 122.831 56.1978C122.831 57.8599 122.046 59.1798 121.113 59.9131C120.574 60.3042 119.985 60.5975 119.297 60.793C118.169 61.1352 116.353 61.233 114.586 60.6464L114.046 60.7441H108.598L103.886 55.2689V60.6952H99.9595ZM56.5717 39.7722C58.584 41.532 62.0197 43.243 65.7008 43.0964C70.2653 42.9008 72.7194 41.0921 74.3391 38.9411L74.7808 38.3545L69.48 34.4436C69.48 34.4436 68.6456 35.9591 67.4186 36.5946C66.7315 36.9368 65.9953 37.1323 65.1118 37.1323C63.7866 37.0835 62.5105 36.7412 61.1853 35.3724C60.2528 34.3947 59.5656 32.7326 59.5656 30.7283C59.5656 29.7995 59.7129 28.9195 60.0073 28.1374C60.5963 26.6219 61.5779 25.3998 63.0013 24.8131C63.6884 24.5198 64.4247 24.3732 65.259 24.3243C66.9769 24.2754 68.2039 25.0087 68.8911 25.8886L69.3819 26.4752L74.29 22.4666L73.8483 21.88C73.3084 21.2445 72.7194 20.6578 72.0322 20.2179C71.3942 19.7779 69.3819 18.5069 65.7498 18.3602C61.4307 18.2136 57.7496 20.609 56.6207 21.6844C55.4919 22.7599 54.5593 24.0798 53.9704 25.5953C53.3323 27.1108 53.0378 28.8218 53.0378 30.6794C53.0378 32.5371 53.3814 34.2481 53.9704 35.7635C54.5102 37.3768 55.3937 38.7456 56.5717 39.7722ZM90.4377 18.9468L100.745 42.5586H93.5789L91.6647 37.8656H84.0081L82.143 42.5586H75.1244L85.4314 18.9468H90.4377ZM87.7873 28.1374L86.1676 32.2926H89.407L87.7873 28.1374ZM109.678 42.5586H103.297V18.9468H112.622C113.8 18.9468 114.929 19.0446 116.009 19.289C118.07 19.729 120.083 20.9512 121.015 22.8088C121.506 23.7865 121.752 24.9598 121.752 26.3775C121.752 28.0885 121.31 29.6039 120.377 30.8261C119.641 31.8038 118.61 32.5371 117.334 32.9282L123.224 42.5586H115.616L110.954 33.7103H109.727V42.5586H109.678ZM109.678 28.0885H111.837C113.015 28.0885 113.997 27.9418 114.291 27.7952C114.586 27.6974 115.224 27.2574 115.224 26.3286C115.224 25.3998 114.635 25.0087 114.389 24.862C114.095 24.7154 113.408 24.4709 112.132 24.4709H109.678V28.0885ZM16.5214 57.2244C15.9324 56.8822 15.1962 57.0777 14.8526 57.6643L13.7237 59.5709C13.3802 60.1575 13.5765 60.8908 14.1655 61.233C14.6072 61.4774 15.4416 61.4285 15.8342 60.793L16.9631 58.8865C17.3067 58.2999 17.1103 57.5666 16.5214 57.2244ZM44.5958 11.6629C43.1234 11.4184 41.7982 12.0051 41.1601 13.1783C39.5895 16.0626 37.3809 19.9246 36.5956 21.3422L27.6628 22.2711L23.54 14.6449L28.8408 5.25885C29.3806 4.28113 29.3316 3.20565 28.6935 2.22793C27.9082 1.00579 26.1904 -0.0208088 25.1597 0.174734C21.135 0.90802 15.9324 4.52556 13.282 10.5874C11.0243 15.6715 11.3678 21.3911 13.9691 26.6219L5.87073 40.4566C5.52716 41.0432 5.72349 41.7765 6.31246 42.1187C6.90144 42.4609 7.63766 42.2653 7.98123 41.6787L16.3741 27.3063C16.5704 26.9641 16.6195 26.4752 16.3741 26.133C13.8219 21.3911 13.5274 16.2092 15.4907 11.5651C17.3067 7.26316 20.8405 4.03671 25.1597 2.71679C25.5032 2.81456 26.2885 3.20565 26.583 3.69451C26.6812 3.89005 26.6812 3.98782 26.583 4.13448L21.0368 14.0583C20.8405 14.4494 20.8405 14.8893 21.0368 15.2315L25.8959 24.1287C26.1413 24.5687 26.6321 24.8131 27.1229 24.7642L37.5281 23.6888C37.9208 23.6399 38.2644 23.3954 38.4607 23.0532C38.5098 23.0044 41.4056 17.8714 43.3688 14.3027C43.4179 14.2049 43.5651 14.0094 44.0069 14.0094C44.6449 14.0094 45.1848 14.4494 45.3321 14.596C46.4118 19.5824 45.1848 24.6176 42.0436 28.3818C38.9515 32.0971 34.4851 34.0525 29.4297 33.9059C28.988 33.9059 28.5463 34.1503 28.3499 34.4925L16.8649 54.1934C16.5214 54.7801 16.6686 55.6111 17.3067 55.8556C17.9447 56.1489 18.6809 55.9044 18.9754 55.4156L30.1169 36.3502C35.5649 36.3013 40.5712 34.0036 43.9578 29.9461C47.5898 25.5953 48.9641 19.8268 47.7861 14.1072C47.4425 12.8361 45.9701 11.9073 44.5958 11.6629ZM2.87678 48.0827C3.46575 48.376 4.20197 48.2294 4.54554 47.6428L6.06706 45.0518C6.41063 44.4652 6.2143 43.7319 5.62533 43.3897C5.03635 43.0475 4.30013 43.243 3.95656 43.8297L2.43505 46.4206C2.09148 46.9584 2.2878 47.7405 2.87678 48.0827ZM0.864445 59.3264C-0.264423 60.4508 1.45342 62.1618 2.63137 61.0863C3.76024 59.962 1.99331 58.251 0.864445 59.3264C1.35526 58.8865 0.668121 59.5709 0.864445 59.3264ZM7.49041 50.5759C6.90144 50.2337 6.16522 50.4292 5.82165 51.0159L2.53321 56.4911C2.18964 57.0777 2.33688 57.8599 2.97494 58.1532C3.46575 58.3976 4.25105 58.2998 4.6437 57.7132L7.93215 52.238C8.27571 51.7003 8.07939 50.967 7.49041 50.5759ZM24.8161 35.4213C25.7977 32.8304 24.3744 30.5328 22.5093 29.6528C20.6442 28.8218 18.6809 29.4084 17.6993 31.1194L7.88306 47.545C7.53949 48.1316 7.73582 48.8649 8.32479 49.2071C8.91377 49.5493 9.64999 49.3538 9.99356 48.7671L19.8589 32.3415C20.3497 31.5105 21.0859 31.706 21.4786 31.8527C22.313 32.2438 22.951 33.1726 22.5584 34.4436L8.17755 58.5932C7.83398 59.1798 8.03031 59.9131 8.61928 60.2553C8.81561 60.353 9.01193 60.4508 9.25734 60.4508C9.69907 60.4508 10.0917 60.2553 10.3371 59.8642C10.3371 59.9131 24.8161 35.5191 24.8161 35.4213ZM91.7138 60.6952H87.8855V46.3717H93.5298C94.2661 46.3717 94.9532 46.4695 95.5912 46.5673C96.8674 46.8117 98.0453 47.5939 98.6343 48.7182C98.9288 49.3049 99.076 50.0382 99.076 50.8692C99.076 51.8958 98.7815 52.8246 98.2416 53.5579C97.7999 54.1446 97.1618 54.5845 96.4256 54.829L99.9595 60.6464H95.3458L92.5482 55.2689H91.812V60.6952H91.7138ZM91.7138 51.9447H93.039C93.7262 51.9447 94.3151 51.8469 94.5115 51.798C94.6587 51.7492 95.0514 51.5047 95.0514 50.9181C95.0514 50.3315 94.7078 50.1359 94.5605 50.0382C94.4133 49.9404 93.9716 49.7937 93.1863 49.7937H91.7138V51.9447ZM72.2286 56.6377C71.1979 54.1446 71.4924 51.0159 73.1611 48.8649C74.8299 46.6651 77.7257 45.834 80.4251 46.0784C83.1246 46.3717 85.5296 47.9361 86.5603 50.4292C87.591 52.9224 87.2965 56.0511 85.6278 58.2021C83.959 60.4019 81.0632 61.233 78.3637 60.9886C75.6643 60.6952 73.2593 59.1798 72.2286 56.6377C71.8359 55.7089 72.6212 57.5666 72.2286 56.6377ZM75.9587 55.0734C76.695 57.0288 79.0018 57.811 80.8669 57.0288C82.8301 56.1978 83.4682 53.8512 82.732 51.9447C81.9957 49.9893 79.6889 49.1582 77.8238 49.9404C75.9097 50.8203 75.2716 53.2157 75.9587 55.0734C76.1551 55.5622 75.8115 54.6334 75.9587 55.0734Z" fill="white"/>
</svg>
