<svg viewBox="0 0 166 53" fill="none" xmlns="http://www.w3.org/2000/svg">
<path d="M61.0524 22.0865H66.8305V35.375H69.8106V37.6147H61.0638V35.375H64.0211V24.3376H61.041V22.0865H61.0524ZM67.3765 16.6194C67.3765 16.9295 67.3196 17.2167 67.1945 17.4923C67.0694 17.768 66.9102 18.0092 66.7168 18.2044C66.5234 18.3997 66.2846 18.5605 66.0116 18.6753C65.7386 18.7902 65.4542 18.8476 65.1585 18.8476C64.8514 18.8476 64.5671 18.7902 64.3054 18.6753C64.0325 18.5605 63.805 18.3997 63.6002 18.2044C63.4069 18.0092 63.2476 17.768 63.1339 17.4923C63.0201 17.2167 62.9633 16.9295 62.9633 16.6194C62.9633 16.3208 63.0201 16.0452 63.1339 15.7695C63.2476 15.4939 63.4069 15.2642 63.6002 15.0574C63.7936 14.8507 64.0325 14.6899 64.3054 14.5636C64.5784 14.4372 64.8628 14.3798 65.1585 14.3798C65.4542 14.3798 65.7386 14.4372 66.0116 14.5636C66.2846 14.6899 66.5234 14.8507 66.7168 15.0574C66.9102 15.2642 67.0808 15.5054 67.1945 15.7695C67.3196 16.0452 67.3765 16.3323 67.3765 16.6194Z" fill="white"/>
<path d="M72.8021 21.5466L77.5566 23.212C77.7272 23.0972 77.9888 22.9364 78.3414 22.7526C78.694 22.5688 79.1035 22.3851 79.5698 22.2013C80.0362 22.029 80.5708 21.8682 81.1395 21.7419C81.7196 21.6155 82.3224 21.5466 82.9707 21.5466C84.1082 21.5466 85.0864 21.673 85.9053 21.9256C86.7129 22.1783 87.3726 22.5573 87.8958 23.0742C88.419 23.591 88.783 24.2227 89.0219 24.9922C89.2607 25.7618 89.3858 26.6461 89.3858 27.6568V35.3635H92.4V37.6032H84.984V35.3635H86.5878V28.2426C86.5878 27.5994 86.5309 27.0022 86.4285 26.4624C86.3262 25.9226 86.1328 25.4631 85.8371 25.0726C85.5527 24.6821 85.166 24.3835 84.6769 24.1768C84.1878 23.97 83.5622 23.8552 82.7887 23.8552C82.1404 23.8552 81.5376 23.9241 80.9916 24.0504C80.4456 24.1768 79.9679 24.3261 79.5698 24.4754C79.1035 24.6477 78.6713 24.8544 78.2732 25.0726V35.352H79.8769V37.5917H72.4609V35.352H75.4864V24.9693L72.04 23.7863L72.8021 21.5466Z" fill="white"/>
<path d="M111.964 32.6071L111.076 36.8107C110.565 37.0634 109.984 37.2816 109.325 37.4769C108.767 37.6377 108.096 37.7985 107.3 37.9363C106.515 38.0741 105.639 38.1431 104.673 38.1431C103.137 38.1431 101.738 37.8789 100.487 37.362C99.2357 36.8337 98.1665 36.0872 97.2793 35.1224C96.4035 34.1461 95.721 32.9746 95.2319 31.5849C94.7428 30.1952 94.504 28.6446 94.4926 26.9333C94.4812 25.2335 94.7087 23.6944 95.1978 22.3162C95.6755 20.9379 96.358 19.7549 97.2452 18.7787C98.1324 17.8024 99.2016 17.0558 100.453 16.5275C101.704 15.9992 103.103 15.735 104.638 15.7465C105.821 15.758 106.822 15.8499 107.653 16.0222C108.483 16.1944 109.165 16.3897 109.7 16.5964C110.235 16.8032 110.621 16.9984 110.86 17.1707C111.11 17.343 111.236 17.4349 111.247 17.4464L112.032 21.65L109.564 22.2013L108.847 19.0773C108.483 18.882 107.96 18.6868 107.277 18.4915C106.595 18.3078 105.719 18.2044 104.661 18.2044C103.501 18.2044 102.489 18.4111 101.602 18.8131C100.714 19.2151 99.975 19.8009 99.3722 20.5474C98.7693 21.3054 98.3144 22.2128 97.9959 23.2924C97.6774 24.3721 97.5182 25.578 97.5182 26.9218C97.5182 28.3001 97.6774 29.529 97.9959 30.6086C98.3144 31.6883 98.7807 32.6071 99.3949 33.3536C100.009 34.1117 100.748 34.6859 101.636 35.0764C102.511 35.467 103.524 35.6622 104.65 35.6622C105.537 35.6622 106.345 35.5818 107.073 35.4095C107.801 35.2372 108.392 35.0764 108.836 34.9042L109.518 32.0213L111.964 32.6071Z" fill="white"/>
<path d="M116.138 25.8422L116.719 22.5573C117.162 22.3736 117.663 22.2013 118.209 22.0635C118.675 21.9371 119.221 21.8108 119.858 21.7074C120.483 21.6041 121.177 21.5466 121.928 21.5466C122.997 21.5466 123.907 21.65 124.647 21.8567C125.386 22.0635 126 22.3391 126.478 22.6952C126.955 23.0397 127.331 23.4532 127.592 23.9126C127.865 24.372 128.059 24.8659 128.184 25.3713C128.309 25.8881 128.377 26.4164 128.4 26.9562C128.423 27.496 128.434 28.0244 128.434 28.5182V34.8237L131.835 35.9493L131.13 38.2234L126.284 36.558C125.682 36.9715 124.954 37.339 124.112 37.6606C123.27 37.9822 122.315 38.143 121.257 38.143C120.29 38.143 119.426 38.0166 118.664 37.7754C117.902 37.5342 117.265 37.2012 116.73 36.7647C116.195 36.3283 115.797 35.8229 115.513 35.2372C115.229 34.6514 115.092 34.0197 115.081 33.3191C115.069 32.4807 115.217 31.7686 115.524 31.1599C115.831 30.5626 116.264 30.0688 116.798 29.6897C117.344 29.3107 117.97 29.0236 118.698 28.8513C119.426 28.679 120.199 28.5872 121.029 28.5872L125.67 28.6216V28.3345C125.67 28.0244 125.67 27.7028 125.682 27.3697C125.682 27.0366 125.659 26.7036 125.613 26.359C125.556 26.0259 125.465 25.7043 125.34 25.4057C125.215 25.1071 125.01 24.8429 124.749 24.6017C124.476 24.3605 124.123 24.1768 123.691 24.039C123.259 23.9011 122.713 23.8322 122.053 23.8322C121.291 23.8322 120.643 23.8782 120.097 23.97C119.551 24.0619 119.119 24.1538 118.823 24.2572L118.47 26.2556L116.138 25.8422ZM121.371 35.8459C121.894 35.8459 122.383 35.8 122.827 35.7081C123.27 35.6162 123.668 35.5128 124.021 35.375C124.374 35.2372 124.692 35.0879 124.954 34.9271C125.227 34.7663 125.454 34.6055 125.636 34.4677V30.9187L121.086 30.8842C120.677 30.8842 120.279 30.9072 119.903 30.9646C119.528 31.022 119.187 31.1254 118.891 31.2862C118.595 31.447 118.356 31.6997 118.186 32.0213C118.015 32.3429 117.924 32.7678 117.924 33.3076C117.924 33.7441 118.015 34.1231 118.209 34.4332C118.391 34.7548 118.641 35.019 118.959 35.2257C119.278 35.4324 119.642 35.5932 120.063 35.6966C120.483 35.7885 120.916 35.8459 121.371 35.8459Z" fill="white"/>
<path d="M144.608 26.4968L144.244 24.5213C143.88 24.395 143.334 24.2457 142.595 24.0964C141.855 23.9471 140.888 23.8667 139.694 23.8667C139.273 23.8667 138.864 23.9011 138.466 23.97C138.068 24.039 137.715 24.1423 137.396 24.3031C137.078 24.4639 136.828 24.6707 136.646 24.9348C136.464 25.199 136.361 25.5206 136.361 25.9226C136.361 26.2901 136.418 26.5887 136.521 26.8299C136.623 27.0711 136.794 27.2664 137.021 27.4271C137.249 27.5879 137.533 27.7143 137.886 27.8062C138.238 27.898 138.659 27.967 139.148 28.0129L142.276 28.3575C142.981 28.4264 143.63 28.5757 144.232 28.7939C144.835 29.0121 145.37 29.3222 145.813 29.7127C146.268 30.1032 146.621 30.5856 146.883 31.1599C147.144 31.7342 147.281 32.4118 147.281 33.1928C147.281 34.0083 147.11 34.7204 146.78 35.3406C146.45 35.9608 145.984 36.4776 145.393 36.8911C144.801 37.3046 144.107 37.6262 143.288 37.8329C142.481 38.0396 141.594 38.1545 140.638 38.1545C139.796 38.1545 139 38.0626 138.227 37.8788C137.465 37.6951 136.782 37.4883 136.191 37.2701C135.486 37.0174 134.837 36.7073 134.234 36.3743L133.654 33.1584L135.986 32.6415L136.384 34.8812C136.85 35.1224 137.442 35.3406 138.147 35.5358C138.852 35.7311 139.66 35.8344 140.57 35.8344C141.946 35.8344 142.97 35.6047 143.63 35.1453C144.289 34.6859 144.631 34.0312 144.631 33.1813C144.631 32.653 144.449 32.2166 144.096 31.8835C143.743 31.5504 143.163 31.3322 142.378 31.2403L138.796 30.8728C137.908 30.7924 137.146 30.6086 136.521 30.3215C135.895 30.0343 135.372 29.6783 134.974 29.2533C134.576 28.8284 134.28 28.323 134.087 27.7487C133.905 27.1745 133.802 26.5657 133.802 25.8996C133.802 25.2679 133.939 24.6821 134.2 24.1538C134.462 23.6255 134.849 23.1661 135.372 22.7756C135.895 22.3851 136.532 22.0864 137.283 21.8682C138.045 21.65 138.909 21.5466 139.887 21.5466C140.843 21.5466 141.719 21.6155 142.504 21.7419C143.288 21.8682 143.971 22.0175 144.54 22.1668C145.199 22.3391 145.802 22.5459 146.337 22.7641L146.917 25.9915L144.608 26.4968Z" fill="white"/>
<path d="M158.37 38.1545C157.21 38.1545 156.164 37.9592 155.208 37.5802C154.253 37.2012 153.423 36.6499 152.729 35.9378C152.035 35.2257 151.5 34.3528 151.114 33.3192C150.738 32.2855 150.545 31.1254 150.545 29.8276C150.545 28.5297 150.738 27.3697 151.114 26.3475C151.489 25.3253 152.035 24.4524 152.729 23.7403C153.423 23.0282 154.253 22.4884 155.208 22.1094C156.164 21.7304 157.222 21.5466 158.37 21.5466C159.326 21.5466 160.247 21.6845 161.123 21.9486C161.999 22.2243 162.761 22.6952 163.387 23.3613C164.012 24.0275 164.49 24.9463 164.797 26.0948C165.104 27.2434 165.172 28.7135 165.002 30.4708L153.457 30.5397C153.548 32.228 154.014 33.5259 154.844 34.4447C155.675 35.3635 156.858 35.823 158.416 35.823C159.258 35.823 160.008 35.7311 160.668 35.5473C161.328 35.3635 161.908 35.1568 162.386 34.9386C162.943 34.6859 163.432 34.3758 163.853 34.0427L165.15 35.7541C165.15 35.7655 165.002 35.8919 164.706 36.1446C164.41 36.3972 163.967 36.6614 163.398 36.96C162.818 37.2586 162.113 37.5228 161.271 37.7755C160.418 38.0282 159.462 38.1545 158.37 38.1545ZM158.405 23.8667C156.983 23.8667 155.857 24.2572 155.049 25.0267C154.23 25.7962 153.718 26.8988 153.491 28.323L162.556 28.2886C162.533 26.8299 162.169 25.7273 161.476 24.9808C160.782 24.2342 159.758 23.8667 158.405 23.8667Z" fill="white"/>
<path d="M28.6232 13.2655V2.26261C28.6232 2.25112 28.6232 2.18221 28.6232 2.17073V2.13627C28.5891 0.953282 27.6223 0 26.4394 0C25.2565 0 24.2896 0.953282 24.2441 2.13627C24.2441 2.15924 24.2441 2.26261 24.2441 2.29706V13.3115C25.0062 13.1737 25.7797 13.1048 26.5759 13.1048C27.2697 13.1048 27.9635 13.1622 28.6232 13.2655Z" fill="white"/>
<path d="M19.3298 3.25039C19.3185 3.2389 19.2957 3.18147 19.2957 3.1585L19.2843 3.12405C18.7952 2.04442 17.5441 1.53906 16.4521 1.99848C15.3602 2.45789 14.8256 3.7098 15.2351 4.8124C15.2465 4.83537 15.2806 4.93874 15.292 4.96171L19.4777 15.1837C20.7061 14.3912 22.0597 13.8055 23.5156 13.4609L19.3298 3.25039Z" fill="white"/>
<path d="M33.5378 49.4791C33.5491 49.4906 33.5719 49.548 33.5719 49.571L33.5833 49.6054C34.0724 50.685 35.3235 51.1904 36.4155 50.731C37.5074 50.2716 38.042 49.0197 37.6325 47.9171C37.6211 47.8941 37.587 47.7907 37.5757 47.7678L33.5036 37.8329C32.2638 38.6024 30.8989 39.1767 29.4316 39.4983L33.5378 49.4791Z" fill="white"/>
<path d="M18.8751 15.5971L11.1064 7.75262C11.0951 7.74113 11.0496 7.69519 11.0382 7.68371L11.0154 7.66074C10.151 6.85676 8.80883 6.86824 7.96713 7.71816C7.12544 8.56808 7.11406 9.92336 7.91026 10.7962C7.93301 10.8192 8.00125 10.8881 8.024 10.9111L15.7813 18.7441C16.6343 17.5267 17.6808 16.47 18.8751 15.5971Z" fill="white"/>
<path d="M44.9577 41.9332C44.935 41.9102 44.8667 41.8413 44.844 41.8184L37.3256 34.2266C36.4725 35.4325 35.4147 36.4892 34.209 37.3506L41.7615 44.9768C41.7729 44.9883 41.8184 45.0342 41.8298 45.0457L41.8525 45.0687C42.717 45.8727 44.0592 45.8612 44.9009 45.0113C45.7312 44.1614 45.7539 42.8061 44.9577 41.9332Z" fill="white"/>
<path d="M5.22643 15.0919C5.21506 15.0804 5.15818 15.0575 5.13544 15.0575L5.10131 15.046C3.99801 14.6325 2.75821 15.1723 2.31461 16.2749C1.85964 17.3775 2.36011 18.6408 3.42929 19.1347C3.45204 19.1462 3.54304 19.1806 3.57716 19.1921L13.7003 23.4302C14.0415 21.9601 14.6102 20.5818 15.3837 19.3414L5.22643 15.0919Z" fill="white"/>
<path d="M13.5525 24.1538H2.56495C2.55357 24.1538 2.48533 24.1538 2.47395 24.1538H2.43983C1.26828 24.1883 0.324219 25.1645 0.324219 26.3705C0.324219 27.5764 1.26828 28.5412 2.43983 28.5871C2.46258 28.5871 2.56495 28.5871 2.59907 28.5871H13.5297C13.416 27.898 13.3591 27.1859 13.3591 26.4624C13.3591 25.6699 13.4274 24.9004 13.5525 24.1538Z" fill="white"/>
<path d="M3.54269 33.5374C3.53132 33.5489 3.47445 33.5718 3.4517 33.5718L3.41758 33.5833C2.34839 34.0772 1.84792 35.3406 2.30289 36.4432C2.75787 37.5458 3.99767 38.0856 5.0896 37.6721C5.11235 37.6606 5.21472 37.6262 5.23747 37.6147L15.2924 33.411C14.5303 32.1591 13.9729 30.7809 13.6545 29.2993L3.54269 33.5374Z" fill="white"/>
<path d="M15.7131 34.0542L8.00126 41.8413C7.98988 41.8528 7.94439 41.8987 7.93301 41.9102L7.91026 41.9332C7.11406 42.8061 7.12543 44.1613 7.96713 45.0113C8.80883 45.8612 10.151 45.8727 11.0155 45.0687C11.0382 45.0457 11.1064 44.9768 11.1292 44.9538L18.7841 37.2241C17.5898 36.3513 16.5548 35.2716 15.7131 34.0542Z" fill="white"/>
<path d="M37.2448 18.5834L44.8542 10.8996C44.8656 10.8881 44.9111 10.8422 44.9225 10.8307L44.9452 10.8077C45.7414 9.93482 45.73 8.57953 44.8883 7.72961C44.0466 6.87969 42.7045 6.8682 41.84 7.67218C41.8173 7.69515 41.749 7.76407 41.7263 7.78704L34.1055 15.4823C35.3225 16.3322 36.3803 17.3774 37.2448 18.5834Z" fill="white"/>
<path d="M15.2708 47.7793C15.2594 47.7908 15.2367 47.8482 15.2367 47.8712L15.2253 47.9056C14.8159 49.0197 15.3504 50.2716 16.4424 50.7195C17.5343 51.1675 18.7855 50.6736 19.2746 49.594C19.286 49.571 19.3201 49.4791 19.3315 49.4447L23.449 39.4179C21.9931 39.0619 20.6395 38.4646 19.4111 37.6721L15.2708 47.7793Z" fill="white"/>
<path d="M37.597 4.95027C37.6084 4.93879 37.6312 4.88136 37.6312 4.85839L37.6425 4.82394C38.052 3.70985 37.5174 2.45794 36.4255 2.01001C35.3335 1.55059 34.0824 2.05595 33.5933 3.13558C33.5819 3.15855 33.5478 3.25043 33.5364 3.28489L29.3848 13.415C30.8521 13.7366 32.217 14.2994 33.4568 15.0574L37.597 4.95027Z" fill="white"/>
<path d="M28.4643 24.395C27.3382 23.258 25.5866 23.258 24.5174 24.395C23.3913 25.5321 23.3913 27.3008 24.5174 28.3804C25.6435 29.5175 27.3951 29.5175 28.4643 28.3804C29.5335 27.2549 29.5335 25.4746 28.4643 24.395Z" fill="white"/>
<path d="M26.4397 52.741C25.2682 52.741 24.2559 51.7762 24.2559 50.5358V35.3291C24.2559 34.1461 25.2113 33.1239 26.4397 33.1239C27.6113 33.1239 28.6236 34.0887 28.6236 35.3291V50.5358C28.5667 51.7762 27.6113 52.741 26.4397 52.741Z" fill="white"/>
</svg>
