<svg viewBox="0 0 113 68" fill="none" xmlns="http://www.w3.org/2000/svg">
<path fill-rule="evenodd" clip-rule="evenodd" d="M49.7162 17.6744H51.973L61.9738 31.5876L72.1958 17.6744L86.0993 0.00146484L63.257 33.0498L75.0278 49.3114H72.6825L61.9738 34.512L51.2208 49.3114H48.9197L60.779 33.0498L49.7162 17.6744ZM26.573 17.6744H47.8134V19.3582H28.52V32.0307H46.6629V33.7145H28.52V47.6277H48.0347V49.3114H26.573V17.6744ZM75.8683 17.6744V19.3582H86.9753V49.3114H88.9223V19.3582H100.074V17.6744H75.8683ZM0 17.6744H2.43381L35.9946 67.7622L22.1255 49.3114L2.03555 20.0672L1.94705 49.3114H0V17.6744ZM99.1815 46.4148C99.1815 46.8121 99.4799 47.1195 99.8777 47.1195C100.28 47.1195 100.574 46.8121 100.574 46.4148C100.574 46.0176 100.28 45.7102 99.8777 45.7102C99.4799 45.7102 99.1815 46.0176 99.1815 46.4148ZM101.791 45.2657H102.833C102.847 45.8285 103.259 46.2069 103.865 46.2069C104.542 46.2069 104.926 45.8001 104.926 45.0387V40.2148H105.986V45.0434C105.986 46.4149 105.191 47.2047 103.874 47.2047C102.638 47.2047 101.791 46.4386 101.791 45.2657ZM108.425 45.2041H107.374C107.45 46.4243 108.468 47.2046 109.983 47.2046C111.603 47.2046 112.616 46.3864 112.616 45.0811C112.616 44.0549 112.039 43.4874 110.637 43.161L109.884 42.9766C108.993 42.7685 108.634 42.4895 108.634 42.0024C108.634 41.3876 109.192 40.9856 110.031 40.9856C110.826 40.9856 111.376 41.3781 111.475 42.0071H112.507C112.446 40.8579 111.432 40.0492 110.045 40.0492C108.553 40.0492 107.559 40.8579 107.559 42.0733C107.559 43.0759 108.122 43.6718 109.358 43.9603L110.239 44.1731C111.143 44.3859 111.541 44.6981 111.541 45.2183C111.541 45.8236 110.916 46.2635 110.064 46.2635C109.15 46.2635 108.515 45.852 108.425 45.2041Z" fill="white"/>
</svg>