<svg viewBox="0 0 187 46" fill="none" xmlns="http://www.w3.org/2000/svg">
<path d="M139.464 12.3166C137.064 13.6166 137.164 17.8166 139.764 18.8166C142.564 19.8166 145.564 19.9166 148.364 20.6166C149.064 20.8166 149.764 21.1166 150.064 21.8166C150.764 23.2166 150.164 25.3166 148.564 25.8166C146.264 26.5166 143.564 26.5166 141.364 25.6166C139.864 25.0166 139.164 23.5166 139.064 22.1166C138.464 22.1166 137.764 22.1166 137.164 22.2166C137.264 23.6166 137.564 25.1167 138.664 26.0167C140.464 27.4167 142.764 27.6166 144.964 27.7166C146.964 27.7166 149.164 27.5166 150.864 26.4166C152.864 25.0166 153.064 21.3166 150.664 20.1166C148.464 19.0166 145.964 18.9166 143.664 18.4166C142.564 18.1166 141.264 18.0166 140.264 17.3166C138.964 16.1166 139.564 13.6166 141.264 13.2166C143.464 12.6166 145.864 12.5166 147.964 13.3166C149.264 13.7166 149.764 15.1166 149.964 16.2166C150.564 16.2166 151.164 16.2166 151.864 16.2166C151.864 15.0166 151.464 13.7166 150.464 12.9166C148.864 11.6166 146.664 11.5167 144.764 11.5167C143.064 11.4167 141.164 11.4166 139.464 12.3166Z" fill="white"/>
<path d="M68.1641 12.8167C67.1641 11.9167 65.6641 11.6167 64.3641 11.6167C61.4641 11.6167 58.5641 11.7167 55.6641 11.7167C55.6641 16.8167 55.6641 22.0167 55.6641 27.1167C56.1641 27.1167 56.6641 27.1167 57.1641 27.1167C57.1641 24.9167 57.0641 22.7167 57.1641 20.6167C59.6641 20.6167 62.0641 20.6167 64.5641 20.6167C66.3641 20.5167 68.4641 19.7167 69.1641 17.9167C69.7641 16.2167 69.5641 14.0167 68.1641 12.8167ZM67.3641 17.6167C66.8641 18.9167 65.3641 19.3167 64.0641 19.4167C61.7641 19.5167 59.4641 19.4167 57.2641 19.4167C57.2641 17.3167 57.2641 15.1167 57.2641 13.0167C59.4641 13.0167 61.6641 13.0167 63.8641 13.0167C64.9641 13.0167 66.2641 13.2167 66.9641 14.1167C67.6641 15.0167 67.7641 16.4167 67.3641 17.6167Z" fill="white"/>
<path d="M173.564 11.7167C173.564 16.8167 173.564 21.9167 173.564 27.1167C177.964 27.1167 182.464 27.1167 186.864 27.1167C186.864 26.7167 186.864 26.3167 186.864 25.8167C183.064 25.7167 179.264 25.8167 175.364 25.7167C175.364 21.0167 175.364 16.3167 175.364 11.6167C174.764 11.7167 174.164 11.7167 173.564 11.7167Z" fill="white"/>
<path d="M96.7637 13.7167C96.7637 14.8167 96.7637 15.9167 96.7637 17.0167C96.0637 17.0167 95.4637 17.0167 94.7637 17.0167C94.7637 17.3167 94.7637 17.7167 94.7637 18.0167C95.4637 18.0167 96.1637 18.0167 96.7637 18.0167C96.7637 20.3167 96.7637 22.7167 96.7637 25.0167C96.7637 25.7167 96.9637 26.4167 97.5637 26.8167C98.6637 27.3167 99.8637 27.2167 101.064 27.1167C101.064 26.8167 101.064 26.4167 101.064 26.1167C100.264 26.2167 99.4637 26.3167 98.7637 25.9167C98.2637 25.6167 98.3637 25.0167 98.2637 24.5167C98.2637 22.3167 98.2637 20.2167 98.2637 18.0167C99.1637 18.0167 100.064 18.0167 100.964 18.0167C100.964 17.6167 100.964 17.3167 100.864 16.9167C99.9637 16.9167 99.0637 16.9167 98.1637 16.9167C98.1637 15.8167 98.1637 14.7167 98.1637 13.6167C97.8637 13.7167 97.2637 13.7167 96.7637 13.7167Z" fill="white"/>
<path d="M84.0641 17.6168C82.6641 18.5168 82.6641 21.1168 84.3641 21.8168C86.6641 22.6168 89.2641 22.4168 91.6641 23.1168C92.8641 23.5168 92.9641 25.3168 91.8641 25.9168C90.2641 26.7168 88.3641 26.6168 86.6641 26.3168C85.4641 26.1168 84.4641 25.3168 84.3641 24.0168C83.7641 24.0168 83.1641 24.0168 82.6641 24.0168C82.8641 24.9168 83.0641 25.9168 83.8641 26.5168C85.1641 27.4168 86.8641 27.4168 88.3641 27.5168C89.9641 27.5168 91.6641 27.4168 93.0641 26.6168C94.2641 25.9168 94.6641 24.3168 93.9641 23.2168C93.4641 22.4168 92.5641 22.1168 91.6641 21.9168C89.7641 21.5168 87.7641 21.5168 85.8641 21.1168C85.1641 20.9168 84.5641 20.4168 84.5641 19.7168C84.5641 18.7168 85.6641 18.2168 86.5641 18.0168C87.9641 17.8168 89.5641 17.7168 90.9641 18.3168C91.7641 18.6168 91.9641 19.4168 92.1641 20.2168C92.7641 20.2168 93.2641 20.2168 93.8641 20.2168C93.7641 19.3168 93.4641 18.3168 92.6641 17.8168C91.1641 16.8168 89.3641 16.8168 87.6641 16.9168C86.4641 16.8168 85.1641 16.9168 84.0641 17.6168Z" fill="white"/>
<path d="M119.564 17.1168C118.864 17.4168 118.464 18.1168 118.064 18.8168C118.064 18.2168 118.064 17.6168 118.064 17.1168C117.564 17.1168 117.064 17.1168 116.464 17.1168C116.364 20.5168 116.464 23.8168 116.464 27.2168C116.964 27.2168 117.464 27.2168 117.964 27.2168C117.964 25.5168 117.964 23.7168 117.964 22.0168C117.964 20.8168 118.364 19.4168 119.364 18.7168C120.464 17.9168 121.864 18.1168 123.164 18.1168C123.164 17.7168 123.164 17.2168 123.164 16.8168C121.964 16.7168 120.764 16.6168 119.564 17.1168Z" fill="white"/>
<path d="M157.164 12.5167C159.364 11.4167 161.864 11.2167 164.264 11.4167C166.564 11.6167 168.864 12.4167 170.364 14.2167C172.264 16.2167 172.664 19.4167 171.864 22.0167C171.464 23.5167 170.464 24.6167 169.364 25.6167C170.264 26.2167 171.164 26.8167 172.064 27.5167C171.664 27.9167 171.264 28.2167 170.864 28.6167C169.964 28.0167 169.064 27.3167 168.164 26.8167C167.464 26.8167 166.764 27.2167 165.964 27.4167C163.964 27.8167 161.764 27.8167 159.764 27.4167C157.564 27.0167 155.364 25.7167 154.164 23.7167C152.964 21.8167 152.864 19.3167 153.364 17.2167C153.964 15.1167 155.364 13.4167 157.164 12.5167ZM160.164 12.9167C158.064 13.4167 156.064 14.9167 155.364 17.0167C154.664 19.3167 154.864 22.0167 156.564 23.9167C158.064 25.6167 160.264 26.3167 162.464 26.3167C164.864 26.4167 167.464 25.7167 169.064 23.8167C171.264 21.0167 170.964 16.5167 168.064 14.3167C165.864 12.4167 162.864 12.3167 160.164 12.9167Z" fill="white"/>
<path d="M96.7639 13.7168C97.2639 13.7168 97.7639 13.7168 98.3639 13.7168C98.3639 14.8168 98.3639 15.9168 98.3639 17.0168C99.2639 17.0168 100.164 17.0168 101.064 17.0168C101.064 17.4168 101.064 17.7168 101.164 18.1168C100.264 18.1168 99.3639 18.1168 98.4639 18.1168C98.4639 20.3168 98.4639 22.4168 98.4639 24.6168C98.4639 25.1168 98.4639 25.7168 98.9639 26.0168C99.6639 26.3168 100.464 26.2168 101.264 26.2168C101.264 26.5168 101.264 26.9168 101.264 27.2168C100.064 27.3168 98.8639 27.4168 97.7639 26.9168C97.0639 26.6168 96.8639 25.8168 96.9639 25.1168C96.9639 22.8168 96.9639 20.4168 96.9639 18.1168C96.2639 18.1168 95.5639 18.1168 94.9639 18.1168C94.9639 17.8168 94.9639 17.4168 94.9639 17.1168C95.6639 17.1168 96.2639 17.1168 96.9639 17.1168C96.7639 15.9168 96.7639 14.8168 96.7639 13.7168Z" fill="white"/>
<path d="M79.5639 17.6168C77.7639 16.6168 75.5639 16.5168 73.5639 16.8168C71.8639 17.1168 70.2639 18.0168 69.5639 19.6168C68.8639 21.2168 68.8639 23.1168 69.6639 24.7168C70.5639 26.4168 72.4639 27.3168 74.2639 27.4168C76.5639 27.6168 79.1639 27.3168 80.8639 25.5168C82.6639 23.2168 82.2639 19.1168 79.5639 17.6168ZM79.2639 25.1168C78.3639 26.0168 77.0639 26.4168 75.8639 26.4168C74.4639 26.5168 72.9639 26.2168 71.9639 25.3168C70.6639 24.1168 70.4639 22.1168 70.9639 20.4168C71.4639 18.9168 72.8639 18.0168 74.3639 17.8168C75.7639 17.6168 77.3639 17.7168 78.6639 18.5168C79.6639 19.1168 80.1639 20.2168 80.2639 21.3168C80.4639 22.7168 80.2639 24.1168 79.2639 25.1168Z" fill="white"/>
<path d="M84.0645 17.6168C85.0645 16.9168 86.3645 16.8168 87.5645 16.7168C89.2645 16.6168 91.1645 16.6168 92.5645 17.6168C93.3645 18.1168 93.6645 19.1168 93.7645 20.0168C93.1645 20.0168 92.6645 20.0168 92.0645 20.0168C91.9645 19.2168 91.6645 18.5168 90.8645 18.1168C89.4645 17.5168 87.9645 17.5168 86.4645 17.8168C85.5645 17.9168 84.4645 18.4168 84.4645 19.5168C84.3645 20.2168 85.0645 20.8168 85.7645 20.9168C87.6645 21.4168 89.6645 21.3168 91.5645 21.7168C92.4645 21.9168 93.3645 22.3168 93.8645 23.0168C94.5645 24.1168 94.1645 25.8168 92.9645 26.4168C91.5645 27.2168 89.8645 27.3168 88.2645 27.3168C86.7645 27.2168 85.0645 27.2168 83.7645 26.3168C82.9645 25.7168 82.6645 24.8168 82.5645 23.8168C83.1645 23.8168 83.7645 23.8168 84.2645 23.8168C84.2645 25.1168 85.3645 26.0168 86.5645 26.1168C88.2645 26.3168 90.1645 26.5168 91.7645 25.7168C92.8645 25.1168 92.7645 23.3168 91.5645 22.9168C89.1645 22.2168 86.5645 22.4168 84.2645 21.6168C82.6645 21.1168 82.6645 18.5168 84.0645 17.6168Z" fill="white"/>
<path d="M105.864 16.9167C107.464 16.5167 109.264 16.5167 110.864 17.0167C111.764 17.3167 112.464 18.0167 113.164 18.6167C113.164 18.0167 113.264 17.5167 113.264 17.0167C113.764 17.0167 114.264 17.0167 114.764 17.0167C114.864 20.1167 114.764 23.2167 114.864 26.3167C114.964 27.6167 114.664 29.0167 113.664 29.9167C112.364 31.1167 110.464 31.3167 108.764 31.3167C107.264 31.3167 105.664 31.2167 104.264 30.5167C103.364 30.0167 102.864 29.0167 102.664 28.0167C103.164 28.0167 103.664 28.0167 104.164 28.0167C104.464 28.7167 104.764 29.5167 105.464 29.8167C106.564 30.3167 107.764 30.3167 108.964 30.3167C110.264 30.2167 111.764 30.0167 112.564 28.9167C113.364 27.8167 113.164 26.4167 113.164 25.1167C111.564 26.8167 109.064 27.1167 106.864 26.8167C105.464 26.6167 104.064 26.1167 103.064 25.0167C101.964 23.6167 101.864 21.7167 102.264 20.1167C102.664 18.5167 104.264 17.3167 105.864 16.9167ZM107.164 17.9167C106.064 18.1167 104.864 18.6167 104.264 19.6167C103.564 20.8167 103.564 22.4167 103.964 23.6167C104.464 24.9167 105.964 25.6167 107.264 25.8167C108.964 26.0167 110.964 25.8167 112.164 24.5167C113.564 22.8167 113.364 19.9167 111.564 18.6167C110.364 17.7167 108.664 17.7167 107.164 17.9167Z" fill="white"/>
<path d="M119.564 17.1167C120.764 16.6167 121.964 16.7167 123.164 16.7167C123.164 17.1167 123.164 17.6167 123.164 18.0167C121.864 18.0167 120.464 17.8167 119.364 18.6167C118.364 19.3167 117.964 20.7167 117.964 21.9167C117.964 23.6167 117.964 25.4167 117.964 27.1167C117.464 27.1167 116.964 27.1167 116.464 27.1167C116.364 23.7167 116.364 20.4167 116.464 17.0167C116.964 17.0167 117.464 17.0167 118.064 17.0167C118.064 17.6167 118.064 18.2167 118.064 18.7167C118.464 18.1167 118.864 17.4167 119.564 17.1167Z" fill="white"/>
<path d="M123.764 19.2166C124.764 17.5166 126.864 16.8166 128.764 16.7166C130.764 16.6166 132.964 16.9166 134.364 18.4166C135.464 19.4166 135.764 20.9166 135.864 22.4166C132.064 22.4166 128.364 22.4166 124.564 22.4166C124.664 23.4166 124.964 24.5166 125.764 25.2166C127.264 26.5166 129.464 26.7166 131.264 26.2166C132.464 25.9166 133.464 25.0166 133.864 23.8166C134.464 23.8166 135.064 23.8166 135.564 23.8166C135.064 25.5166 133.564 26.7166 131.864 27.1166C129.564 27.6166 126.864 27.5166 124.864 26.1166C122.864 24.7166 122.464 21.4166 123.764 19.2166ZM126.664 18.4166C125.564 19.0166 124.964 20.2166 124.764 21.4166C127.964 21.4166 131.164 21.4166 134.364 21.4166C134.264 20.7166 134.064 19.9166 133.564 19.4166C131.864 17.4166 128.764 17.2166 126.664 18.4166Z" fill="white"/>
<path d="M26.2643 0.816757C24.3643 0.516757 22.3643 0.416757 20.4643 0.716757C19.3643 0.916757 18.2643 1.41676 17.3643 1.91676C14.2643 0.916756 10.7643 0.316755 7.56431 0.916755C5.26431 1.31676 3.06431 2.71676 1.86431 4.81676C0.364311 7.31676 0.0643106 10.3168 0.264311 13.2168C0.664311 16.4168 1.46431 19.6168 2.36431 22.7168C3.16431 25.4168 4.06431 28.1168 5.56431 30.5168C6.36431 31.8168 7.56431 33.2168 9.16431 33.6168C10.4643 33.9168 11.7643 33.5168 12.7643 32.7168C13.2643 33.2168 13.8643 33.6168 14.5643 33.8168C16.4643 34.5168 18.5643 34.5168 20.4643 33.7168C20.5643 36.3168 20.4643 39.0168 21.4643 41.4168C21.8643 42.6168 22.4643 43.7168 23.5643 44.4168C24.7643 45.2168 26.1643 45.3168 27.5643 45.1168C28.7643 44.9168 30.0643 44.5168 31.0643 43.9168C32.1643 43.2168 33.0643 42.2168 33.5643 41.0168C34.7643 38.3168 34.8643 35.4168 34.9643 32.5168C37.7643 32.7168 40.6643 32.0168 42.7643 30.1168C43.5643 29.4168 44.2643 28.3168 43.9643 27.2168C43.6643 26.2168 42.5643 25.5168 41.5643 25.6168C40.4643 25.7168 39.4643 26.0168 38.3643 26.0168C40.7643 21.8168 42.6643 17.3168 43.4643 12.6168C43.7643 10.6168 44.0643 8.61676 43.4643 6.61676C43.1643 5.51676 42.3643 4.61676 41.5643 3.81676C39.7643 2.01676 37.2643 0.816757 34.7643 0.316757C31.8643 -0.283243 28.9643 0.016757 26.2643 0.816757Z" fill="white"/>
<path d="M26.1642 2.01676C29.1642 1.11676 32.3642 0.816757 35.3642 1.71676C37.7642 2.41676 39.9642 3.81676 41.4642 5.81676C42.0642 6.61676 42.2642 7.71676 42.2642 8.71676C42.3642 10.5168 41.9642 12.3168 41.5642 14.0168C40.4642 18.6168 38.4642 22.9168 35.9642 26.9168C37.3642 27.5168 38.9642 27.2168 40.3642 27.0168C40.9642 26.9168 41.7642 26.7168 42.1642 27.3168C42.5642 27.9168 42.1642 28.6168 41.7642 29.0168C39.6642 31.1168 36.4642 31.6168 33.6642 31.1168C33.3642 33.6168 33.0642 36.1168 32.6642 38.7168C32.4642 40.1168 31.9642 41.6168 30.8642 42.5168C29.8642 43.4168 28.4642 43.8168 27.1642 44.0168C25.8642 44.2168 24.2642 44.1168 23.2642 43.1168C22.1642 42.1168 21.4642 40.6168 21.3642 39.2168C21.0642 36.7168 21.0642 34.1168 21.0642 31.6168C19.8642 32.6168 18.2642 33.2168 16.6642 33.1168C15.5642 33.0168 14.2642 32.8168 13.4642 32.0168C12.9642 31.6168 13.0642 30.8168 13.5642 30.4168C14.4642 29.7168 15.6642 29.8168 16.6642 29.4168C17.4642 29.2168 17.8642 28.4168 18.2642 27.9168C17.3642 27.8168 16.4642 27.6168 15.7642 27.2168C14.5642 28.5168 13.3642 29.9168 12.2642 31.2168C11.5642 32.0168 10.6642 32.7168 9.56417 32.5168C8.36417 32.3168 7.46417 31.4168 6.76417 30.5168C5.46417 28.6168 4.56417 26.4168 3.86417 24.2168C2.76417 20.6168 1.86417 17.0168 1.36417 13.3168C1.06417 10.5168 1.36417 7.51676 2.96417 5.21676C4.26417 3.31676 6.46417 2.31676 8.66417 2.11676C11.6642 1.81676 14.6642 2.41676 17.4642 3.41676C19.7642 1.91676 22.7642 1.61676 25.4642 2.21676C25.7642 2.01676 25.9642 2.11676 26.1642 2.01676ZM28.3642 2.81676C28.9642 3.21676 29.5642 3.51676 30.1642 3.91676C32.5642 5.51676 34.4642 7.81676 35.5642 10.4168C35.8642 11.2168 36.2642 11.9168 36.1642 12.8168C36.1642 14.5168 35.5642 16.2168 35.7642 17.9168C35.9642 19.7168 36.3642 21.6168 35.8642 23.4168C35.7642 24.0168 35.3642 24.6168 35.1642 25.2168C35.1642 25.3168 35.2642 25.5168 35.2642 25.5168C35.4642 25.2168 35.6642 24.9168 35.8642 24.6168C37.7642 21.5168 39.1642 18.1168 40.1642 14.6168C40.6642 12.7168 41.0642 10.7168 41.0642 8.71676C41.0642 7.91676 40.9642 7.01676 40.4642 6.31676C39.3642 4.91676 37.8642 3.81676 36.1642 3.11676C33.6642 2.31676 30.9642 2.21676 28.3642 2.81676ZM21.3642 3.01676C19.4642 3.21676 17.6642 4.31676 16.5642 5.81676C15.0642 7.91676 14.3642 10.5168 14.1642 13.0168C15.7642 12.3168 17.4642 11.6168 19.2642 12.0168C20.3642 12.3168 21.2642 13.3168 21.4642 14.4168C21.9642 16.7168 22.2642 19.0168 21.7642 21.3168C21.3642 23.1168 20.2642 24.7168 19.8642 26.6168C20.3642 26.6168 20.8642 26.7168 21.2642 26.9168C22.1642 27.4168 22.6642 28.4168 22.5642 29.4168C22.4642 31.9168 22.4642 34.4168 22.6642 36.9168C22.7642 37.9168 22.7642 39.0168 23.0642 40.0168C23.4642 41.2168 24.2642 42.4168 25.5642 42.7168C26.9642 42.9168 28.3642 42.5168 29.6642 41.9168C30.8642 41.3168 31.4642 39.9168 31.6642 38.6168C32.0642 35.9168 32.3642 33.2168 32.6642 30.5168C32.7642 29.5168 32.5642 28.5168 33.1642 27.6168C33.4642 27.0168 34.0642 26.8168 34.5642 26.5168C34.1642 25.9168 33.6642 25.3168 33.2642 24.7168C31.9642 21.9168 30.1642 19.3168 29.5642 16.3168C29.3642 15.0168 29.4642 13.5168 30.5642 12.6168C31.7642 11.6168 33.3642 11.7168 34.8642 11.7168C33.9642 9.21675 32.3642 7.01676 30.3642 5.41676C27.7642 3.51676 24.4642 2.61676 21.3642 3.01676ZM8.06417 3.21676C6.36417 3.51676 4.66417 4.51676 3.76417 6.11676C2.56417 8.21676 2.46417 10.6168 2.66417 12.9168C3.06417 15.9168 3.76417 18.9168 4.66417 21.9168C5.46417 24.4168 6.26417 26.9168 7.66417 29.1168C8.16417 29.9168 8.76417 30.7168 9.66417 31.0168C10.4642 31.2168 11.0642 30.5168 11.5642 30.0168C12.5642 28.7168 13.7642 27.5168 14.8642 26.2168C13.2642 24.8168 12.4642 22.6168 12.6642 20.4168C12.8642 18.8168 12.9642 17.1168 12.8642 15.4168C12.6642 13.1168 13.0642 10.7168 13.7642 8.41676C14.2642 6.71676 15.1642 5.21676 16.3642 3.91676C13.6642 3.31676 10.7642 2.71676 8.06417 3.21676ZM31.3642 13.5168C30.5642 14.1168 30.5642 15.3168 30.7642 16.2168C31.3642 19.1168 33.0642 21.5168 34.2642 24.1168C35.2642 22.2168 34.6642 20.0168 34.4642 17.9168C34.2642 16.2168 34.7642 14.6168 34.8642 13.0168C33.7642 13.0168 32.4642 12.8168 31.3642 13.5168ZM14.0642 14.6168C14.0642 16.0168 14.1642 17.4168 14.0642 18.7168C13.9642 19.9168 13.6642 21.1168 13.9642 22.3168C14.3642 24.5168 16.2642 26.3168 18.5642 26.3168C18.8642 25.2168 19.2642 24.1168 19.7642 23.1168C21.1642 20.4168 20.8642 17.3168 20.1642 14.5168C19.9642 13.7168 19.2642 13.1168 18.4642 13.1168C16.8642 13.1168 15.3642 13.8168 14.0642 14.6168ZM34.3642 28.1168C33.9642 28.5168 33.9642 29.1168 33.9642 29.6168C34.8642 29.9168 35.8642 29.9168 36.8642 29.8168C38.2642 29.6168 39.7642 29.2168 40.8642 28.1168C39.1642 28.3168 37.2642 28.7168 35.5642 27.9168C35.1642 27.7168 34.6642 27.9168 34.3642 28.1168ZM17.8642 30.1168C16.8642 30.7168 15.6642 30.6168 14.7642 31.1168C16.7642 32.1168 19.6642 31.8168 21.0642 29.9168C21.7642 29.2168 21.0642 27.8168 20.1642 27.9168C19.1642 28.5168 18.7642 29.6168 17.8642 30.1168Z" fill="white"/>
<path d="M31.7641 13.9168C32.3641 13.5168 33.1641 13.5168 33.7641 13.7168C33.7641 14.5168 32.7641 15.1168 32.0641 14.7168C31.8641 14.6168 31.4641 14.2168 31.7641 13.9168Z" fill="white"/>
<path d="M17.6637 14.0167C18.2637 13.8167 18.9637 13.9167 19.4637 14.3167C19.7637 14.6167 19.4637 15.1167 19.1637 15.2167C18.4637 15.7167 17.3637 15.2167 17.2637 14.4167C17.2637 14.2167 17.4637 14.0167 17.6637 14.0167Z" fill="white"/>
<path d="M28.3643 2.81666C30.8643 2.21666 33.6643 2.31666 36.0643 3.21666C37.7643 3.81666 39.2643 5.01666 40.3643 6.41666C40.9643 7.11666 40.9643 8.01666 40.9643 8.81666C40.9643 10.8167 40.5643 12.7167 40.0643 14.7167C39.0643 18.2167 37.6643 21.6167 35.7643 24.7167C35.5643 25.0167 35.3643 25.3167 35.1643 25.6167C35.1643 25.5167 35.0643 25.3167 35.0643 25.3167C35.2643 24.7167 35.6643 24.1167 35.7643 23.5167C36.2643 21.7167 35.8643 19.8167 35.6643 18.0167C35.4643 16.3167 36.0643 14.6167 36.0643 12.9167C36.1643 12.1167 35.7643 11.3167 35.4643 10.5167C34.2643 7.91666 32.4643 5.61666 30.0643 4.01666C29.6643 3.51666 28.9643 3.21666 28.3643 2.81666Z" fill="#141640"/>
<path d="M21.3645 3.01677C24.4645 2.61677 27.7645 3.51677 30.2645 5.41677C32.2645 7.01677 33.9645 9.21677 34.7645 11.7168C33.3645 11.7168 31.6645 11.6168 30.4645 12.6168C29.3645 13.5168 29.2645 15.0168 29.4645 16.3168C30.0645 19.4168 31.8645 22.0168 33.1645 24.7168C33.4645 25.4168 33.9645 25.9168 34.4645 26.5168C33.8645 26.8168 33.3645 27.0168 33.0645 27.6168C32.5645 28.5168 32.7645 29.5168 32.5645 30.5168C32.2645 33.2168 31.9645 35.9168 31.5645 38.6168C31.3645 39.9168 30.7645 41.3168 29.5645 41.9168C28.3645 42.5168 26.8645 42.9168 25.4645 42.7168C24.1645 42.5168 23.2645 41.2168 22.9645 40.0168C22.6645 39.0168 22.6645 37.9168 22.5645 36.9168C22.4645 34.4168 22.4645 31.9168 22.4645 29.4168C22.5645 28.4168 22.0645 27.4168 21.1645 26.9168C20.7645 26.7168 20.2645 26.6168 19.7645 26.6168C20.1645 24.8168 21.2645 23.2168 21.6645 21.3168C22.1645 19.0168 21.8645 16.7168 21.3645 14.4168C21.1645 13.3168 20.2645 12.3168 19.1645 12.0168C17.3645 11.6168 15.6645 12.2168 14.0645 13.0168C14.2645 10.5168 14.9645 7.91677 16.4645 5.81677C17.6645 4.31677 19.4645 3.31677 21.3645 3.01677Z" fill="#141640"/>
<path d="M8.06426 3.21679C10.8643 2.71679 13.6643 3.21679 16.3643 4.01679C15.1643 5.31679 14.2643 6.81679 13.7643 8.51679C13.0643 10.7168 12.7643 13.1168 12.8643 15.5168C12.9643 17.2168 12.9643 18.8168 12.6643 20.5168C12.3643 22.6168 13.2643 24.8168 14.8643 26.3168C13.7643 27.6168 12.6643 28.8168 11.5643 30.1168C11.0643 30.7168 10.4643 31.3168 9.66426 31.1168C8.76426 30.8168 8.16426 30.0168 7.66426 29.2168C6.26426 27.0168 5.46426 24.5168 4.66426 22.0168C3.76426 19.1168 3.06426 16.1168 2.66426 13.0168C2.46426 10.7168 2.56426 8.21679 3.76426 6.21679C4.66426 4.61679 6.26426 3.61679 8.06426 3.21679Z" fill="#141640"/>
<path d="M31.3641 13.5168C32.3641 12.8168 33.7641 12.9168 34.8641 13.0168C34.7641 14.6168 34.2641 16.2168 34.4641 17.9168C34.6641 19.9168 35.1641 22.1168 34.2641 24.1168C32.9641 21.5168 31.2641 19.1168 30.7641 16.2168C30.6641 15.3168 30.6641 14.2168 31.3641 13.5168ZM31.7641 13.9168C31.4641 14.2168 31.7641 14.6168 32.0641 14.7168C32.7641 15.1168 33.7641 14.5168 33.7641 13.7168C33.1641 13.5168 32.3641 13.5168 31.7641 13.9168Z" fill="#141640"/>
<path d="M14.0635 14.6168C15.3635 13.8168 16.8635 13.1168 18.3635 13.2168C19.1635 13.2168 19.8635 13.8168 20.0635 14.6168C20.7635 17.4168 20.9635 20.5168 19.6635 23.2168C19.1635 24.2168 18.7635 25.3168 18.4635 26.4168C16.1635 26.4168 14.2635 24.5168 13.8635 22.4168C13.5635 21.2168 13.9635 20.0168 13.9635 18.8168C14.1635 17.3168 14.0635 16.0168 14.0635 14.6168ZM17.6635 14.0168C17.4635 14.1168 17.2635 14.2168 17.2635 14.4168C17.3635 15.2168 18.4635 15.7168 19.1635 15.2168C19.4635 15.0168 19.7635 14.6168 19.4635 14.3168C18.9635 13.9168 18.2635 13.8168 17.6635 14.0168Z" fill="#141640"/>
<path d="M34.3639 28.1167C34.6639 27.9167 35.1639 27.6167 35.5639 27.9167C37.1639 28.8167 39.0639 28.3167 40.8639 28.1167C39.7639 29.1167 38.3639 29.6167 36.8639 29.8167C35.8639 29.9167 34.8639 30.0167 33.9639 29.6167C33.9639 29.1167 33.9639 28.5167 34.3639 28.1167Z" fill="#141640"/>
<path d="M17.8641 30.1167C18.7641 29.6167 19.1641 28.5167 20.0641 27.9167C20.9641 27.8167 21.7641 29.2167 20.9641 29.9167C19.5641 31.8167 16.6641 32.2167 14.6641 31.1167C15.6641 30.7167 16.8641 30.7167 17.8641 30.1167Z" fill="#141640"/>
<path d="M26.264 0.816647C28.964 0.116647 31.864 -0.183353 34.664 0.316647C37.164 0.716647 39.564 2.01665 41.464 3.81665C42.264 4.61665 43.064 5.51665 43.364 6.61665C43.964 8.61665 43.664 10.6166 43.364 12.6166C42.464 17.3166 40.664 21.8166 38.264 26.0166C39.364 26.0166 40.364 25.7166 41.464 25.6166C42.464 25.5166 43.664 26.2166 43.864 27.2166C44.164 28.3166 43.464 29.4166 42.664 30.1166C40.464 32.0166 37.464 32.6166 34.764 32.5166C34.564 35.4166 34.564 38.3166 33.364 41.0166C32.764 42.2166 31.964 43.2166 30.864 43.9166C29.764 44.6166 28.564 44.9166 27.364 45.1166C26.064 45.3166 24.564 45.2166 23.364 44.4166C22.264 43.7166 21.664 42.6166 21.264 41.4166C20.364 38.9166 20.464 36.3166 20.264 33.7166C18.364 34.5166 16.264 34.5166 14.364 33.8166C13.664 33.6166 13.064 33.2166 12.564 32.7166C11.564 33.5166 10.264 33.9166 8.964 33.6166C7.364 33.2166 6.264 31.8166 5.364 30.5166C3.864 28.1166 2.964 25.4166 2.164 22.7166C1.264 19.6166 0.464 16.5166 0.064 13.2166C-0.136 10.3166 0.0640004 7.31665 1.664 4.81665C2.864 2.81665 5.064 1.41665 7.364 0.916645C10.664 0.216645 14.064 0.916647 17.164 1.81665C18.164 1.31665 19.164 0.816646 20.264 0.616646C22.364 0.316646 24.364 0.516647 26.264 0.816647ZM26.164 2.01665C25.964 2.11665 25.664 1.91665 25.464 1.91665C22.764 1.31665 19.764 1.61665 17.464 3.11665C14.664 2.11665 11.664 1.51665 8.664 1.81665C6.464 2.01665 4.164 3.11665 2.964 4.91665C1.364 7.31665 1.164 10.3166 1.364 13.0166C1.864 16.7166 2.764 20.3166 3.864 23.8166C4.664 26.0166 5.464 28.2166 6.764 30.1166C7.464 31.0166 8.364 32.0166 9.564 32.1166C10.664 32.2166 11.564 31.6166 12.264 30.8166C13.464 29.4166 14.564 28.1166 15.764 26.8166C16.564 27.2166 17.464 27.4166 18.264 27.5166C17.764 28.1166 17.364 28.8166 16.664 29.0166C15.664 29.4166 14.464 29.3166 13.564 30.0166C13.064 30.4166 12.964 31.2166 13.464 31.6166C14.264 32.4166 15.564 32.6166 16.664 32.7166C18.264 32.8166 19.864 32.3166 21.064 31.2166C21.064 33.7166 21.064 36.3166 21.364 38.8166C21.464 40.3166 22.164 41.8166 23.264 42.7166C24.264 43.6166 25.864 43.8166 27.164 43.6166C28.464 43.3166 29.864 42.9166 30.864 42.1166C31.964 41.1166 32.464 39.7166 32.664 38.3166C33.064 35.8166 33.364 33.3166 33.664 30.7166C36.464 31.2166 39.664 30.6166 41.764 28.6166C42.164 28.2166 42.664 27.4166 42.164 26.9166C41.764 26.4166 40.964 26.5166 40.364 26.6166C38.964 26.9166 37.364 27.2166 35.964 26.5166C38.464 22.5166 40.464 18.2166 41.564 13.6166C41.964 11.9166 42.264 10.1166 42.264 8.31665C42.164 7.31665 42.064 6.21665 41.464 5.41665C39.964 3.41665 37.764 2.01665 35.364 1.31665C32.464 0.916647 29.164 1.11665 26.164 2.01665Z" fill="#141640"/>
</svg>
