<svg viewBox="0 0 139 49" fill="none" xmlns="http://www.w3.org/2000/svg">
<path fill-rule="evenodd" clip-rule="evenodd" d="M120.508 42.3741V48.6733H131.903C134.237 48.6733 138.245 46.968 138.384 42.2001V39.764C138.384 35.6922 135.039 33.2908 131.903 33.2908H126.223V30.3675H137.478V24.0335H126.676C123.888 24.0335 120.159 26.3304 120.159 30.6111V32.8036C120.159 37.0842 123.853 39.2768 126.676 39.2768C134.516 39.3116 124.794 39.2768 132.042 39.2768V42.3393M59.4563 40.8427C59.4563 40.8427 65.5545 40.3207 65.5545 32.4555C65.5545 24.5902 58.167 23.8594 58.167 23.8594H44.8555V48.6732H51.5461V42.6872L57.3306 48.6732H67.2271L59.4563 40.8427ZM56.8774 35.7617H51.5458V30.089H56.9122C56.9122 30.089 58.4106 30.6458 58.4106 32.9079C58.4106 35.1701 56.8774 35.7617 56.8774 35.7617ZM82.0716 24.0335H75.2765C70.4327 24.0335 68.7949 28.4185 68.7949 30.5067V48.6733H75.5901V44.323H81.967V48.6733H88.5531V30.5067C88.5531 25.2168 83.7442 24.0335 82.0716 24.0335ZM81.9671 37.2929H75.5553V31.2722C75.5553 31.2722 75.5553 29.9149 77.6809 29.9149H80.0157C81.8974 29.9149 81.9322 31.2722 81.9322 31.2722V37.2929H81.9671Z" fill="white"/>
<rect x="90.666" y="23.8594" width="7.63501" height="24.8138" fill="white"/>
<path fill-rule="evenodd" clip-rule="evenodd" d="M109.018 42.2594V23.8594H102.118V42.2594V48.6732H109.018H118.343V42.2594H109.018Z" fill="white"/>
<path fill-rule="evenodd" clip-rule="evenodd" d="M2.86328 48.6733H30.3049C30.3049 48.6733 25.0597 24.7438 42.4278 15.0539C46.214 13.2131 58.2675 6.33641 77.9976 20.9234C78.6229 20.4024 79.2134 19.9856 79.2134 19.9856C79.2134 19.9856 61.1506 1.96032 41.0383 3.97471C30.9301 4.87771 18.4946 14.0814 11.2 26.2372C3.90537 38.393 2.86328 48.6733 2.86328 48.6733Z" fill="#CC0000"/>
<path fill-rule="evenodd" clip-rule="evenodd" d="M2.86328 48.6733H30.3049C30.3049 48.6733 25.0597 24.7438 42.4278 15.0539C46.214 13.2131 58.2675 6.33641 77.9976 20.9234C78.6229 20.4024 79.2134 19.9856 79.2134 19.9856C79.2134 19.9856 61.1506 1.96032 41.0383 3.97471C30.9301 4.87771 18.4946 14.0814 11.2 26.2372C3.90537 38.393 2.86328 48.6733 2.86328 48.6733Z" fill="#CC0000"/>
<path fill-rule="evenodd" clip-rule="evenodd" d="M2.86328 48.6732H30.3049C30.3049 48.6732 25.0597 24.9949 42.4278 15.4068C46.214 13.5854 58.2675 6.78087 77.9976 21.2147C78.6229 20.6992 79.2134 20.2868 79.2134 20.2868C79.2134 20.2868 61.1506 2.45074 41.0383 4.44398C30.8954 5.33749 18.4598 14.4445 11.1652 26.4727C3.87063 38.5008 2.86328 48.6732 2.86328 48.6732ZM60.0389 6.36838L60.1779 4.06585C59.8652 3.89402 58.9968 3.48163 56.8085 2.86304L56.6695 5.1312C57.8158 5.50923 58.9274 5.92162 60.0389 6.36838Z" fill="white"/>
<path fill-rule="evenodd" clip-rule="evenodd" d="M56.6652 12.8165L56.5254 14.9812C57.6789 15.0156 58.8325 15.153 59.9861 15.3935L60.1259 13.2632C58.9374 13.0227 57.7838 12.8852 56.6652 12.8165ZM43.731 2.09598H44.0806L43.3814 0C42.2978 0 41.1791 0.0687207 40.0256 0.206162L40.6897 2.23342C41.7035 2.13034 42.7172 2.09598 43.731 2.09598ZM45.4088 14.7406L46.2129 17.1115C47.2266 16.6305 48.2403 16.2181 49.2541 15.9089L48.485 13.6411C47.2965 13.9847 46.2828 14.3627 45.4088 14.7406ZM29.5385 5.70373L27.9654 3.33286C27.0915 3.77955 26.1826 4.26059 25.2388 4.81036L26.8468 7.21558C27.7557 6.66582 28.6296 6.15041 29.5385 5.70373ZM36.7048 21.166L38.3827 23.6399C38.977 22.7809 39.6761 21.9906 40.4452 21.2004L38.8721 18.8638C38.0681 19.5854 37.334 20.3757 36.7048 21.166ZM31.6361 32.2301L34.4676 34.4292C34.6074 33.0891 34.8521 31.7491 35.2017 30.409L32.6848 28.4505C32.2304 29.7218 31.9157 30.9932 31.6361 32.2301ZM16.3246 15.9089L13.8427 13.7786C12.9338 14.6376 12.0599 15.4966 11.2559 16.3556L13.9475 18.6234C14.6816 17.6957 15.4856 16.7679 16.3246 15.9089ZM5.76787 31.2679L1.74784 29.8247C1.08366 31.3022 0.349568 33.0202 0 33.948L4.02003 35.3911C4.47447 34.2229 5.20857 32.5392 5.76787 31.2679ZM31.1114 40.9576C31.1813 42.7787 31.3561 44.2562 31.5309 45.287L35.7257 46.7645C35.4111 45.4244 35.0964 43.9126 34.8867 42.2976L31.1114 40.9576Z" fill="white"/>
</svg>