<svg viewBox="0 0 179 55" fill="none" xmlns="http://www.w3.org/2000/svg">
<path d="M70.9416 42.5437H75.2166V31.2937H80.1666L86.6916 42.5437H91.4166L84.4416 30.8437C84.4416 30.8437 90.7416 29.2687 90.7416 22.7437C90.7416 18.0187 86.9166 14.1937 82.1916 14.1937H70.9416V42.5437ZM75.2166 27.2437V18.2437H82.1916C84.4416 18.2437 86.4666 20.2687 86.4666 22.7437C86.4666 25.2187 84.4416 27.2437 82.1916 27.2437H75.2166ZM103.997 42.7687C108.722 42.7687 111.422 40.0687 112.772 36.6937H108.497C107.822 37.5937 106.472 38.9437 103.997 38.9437C101.072 38.9437 98.8222 36.6937 98.5972 34.2187H112.997C112.997 34.2187 113.222 33.3187 113.222 32.4187C113.222 26.3437 108.947 22.0687 103.772 22.0687C98.5972 22.0687 94.3222 26.3437 94.3222 32.4187C94.3222 38.4937 98.5972 42.7687 103.997 42.7687ZM98.5972 30.8437C99.0472 27.9187 101.072 25.8937 103.772 25.8937C106.922 25.8937 108.947 27.9187 109.397 30.8437H98.5972ZM123.583 42.7687C127.633 42.7687 129.433 40.5187 129.433 40.5187L130.333 42.5437H133.258V29.2687C133.258 25.2187 130.108 22.0687 125.383 22.0687C120.433 22.0687 117.508 24.7687 117.283 28.3687H121.333C121.558 27.0187 122.683 25.8937 125.383 25.8937C127.858 25.8937 129.208 27.2437 129.208 29.2687V29.9437C119.308 29.9437 116.608 32.6437 116.608 36.6937C116.608 40.2937 119.083 42.7687 123.583 42.7687ZM123.808 39.1687C121.783 39.1687 120.658 38.0437 120.658 36.9187C120.658 34.8937 122.008 33.5437 129.208 33.5437V34.6237C129.208 37.1437 127.183 39.1687 123.808 39.1687ZM146.976 42.7687C151.701 42.7687 155.076 39.3937 155.976 35.1187H151.701C151.026 37.3687 149.451 38.9437 146.976 38.9437C144.051 38.9437 141.351 36.2437 141.351 32.4187C141.351 28.5937 144.051 25.8937 146.976 25.8937C149.451 25.8937 151.026 27.4687 151.701 29.7187H155.976C155.076 25.4437 151.701 22.0687 146.976 22.0687C141.576 22.0687 137.301 26.3437 137.301 32.4187C137.301 38.4937 141.576 42.7687 146.976 42.7687ZM168.147 42.7687C169.497 42.7687 170.397 42.3187 170.397 42.3187V38.7187C170.397 38.7187 169.722 38.9437 169.047 38.9437C167.247 38.9437 165.897 37.5937 165.897 35.7937V26.1187H170.397V22.2937H165.897V16.8937H162.522V19.5937C162.522 21.1687 161.397 22.2937 159.822 22.2937H158.247V26.1187H161.847V35.7937C161.847 40.0687 164.547 42.7687 168.147 42.7687Z" fill="white"/>
<circle cx="31.2365" cy="27.3071" r="5.45429" fill="white"/>
<path fill-rule="evenodd" clip-rule="evenodd" d="M31.2366 16.2175C38.5597 16.2175 45.3627 17.2683 50.4921 19.0342C56.6723 21.1619 60.4722 24.3869 60.4722 27.3072C60.4722 30.3504 56.4451 33.7766 49.8084 35.9755C44.7908 37.6378 38.1881 38.5057 31.2366 38.5057C24.1094 38.5057 17.3603 37.6911 12.2862 35.9572C5.86661 33.763 2 30.2924 2 27.3072C2 24.4106 5.62807 21.2105 11.7214 19.0861C16.87 17.2911 23.841 16.2175 31.2356 16.2175H31.2366Z" stroke="white" stroke-width="2.73408"/>
<path fill-rule="evenodd" clip-rule="evenodd" d="M21.583 21.7943C25.2415 15.4505 29.5502 10.0822 33.6425 6.52092C38.5731 2.23008 43.2653 0.549661 45.7949 2.00839C48.4312 3.52866 49.3873 8.72897 47.9766 15.5765C46.9112 20.7537 44.3633 26.9067 40.8905 32.9287C37.3299 39.1028 33.2528 44.5424 29.2162 48.0707C24.1084 52.5357 19.1703 54.1515 16.5843 52.6602C14.075 51.2142 13.1154 46.4717 14.3192 40.1317C15.3363 34.775 17.8887 28.2 21.5818 21.7942L21.583 21.7943Z" stroke="white" stroke-width="2.73408"/>
<path fill-rule="evenodd" clip-rule="evenodd" d="M21.5915 32.9447C17.9227 26.6082 15.4248 20.193 14.3821 14.8691C13.1271 8.45444 14.0144 3.54996 16.5418 2.08699C19.1755 0.562266 24.1584 2.33096 29.3863 6.97298C33.339 10.4825 37.3978 15.7618 40.8808 21.7781C44.4517 27.9462 47.128 34.1953 48.1691 39.4544C49.4865 46.1096 48.4203 51.1947 45.8367 52.6903C43.3299 54.1415 38.7425 52.605 33.8511 48.3957C29.7182 44.8394 25.2966 39.3443 21.5915 32.9446V32.9447Z" stroke="white" stroke-width="2.73408"/>
</svg>
