<svg viewBox="0 0 194 81" fill="none" xmlns="http://www.w3.org/2000/svg">
<path d="M88.0049 19.7822H83.874V28H80.168V6.67188H87.668C90.1289 6.67188 92.0283 7.22363 93.3662 8.32715C94.7041 9.43066 95.373 11.0273 95.373 13.1172C95.373 14.543 95.0264 15.7393 94.333 16.7061C93.6494 17.6631 92.6924 18.4004 91.4619 18.918L96.252 27.8096V28H92.2822L88.0049 19.7822ZM83.874 16.8086H87.6826C88.9326 16.8086 89.9092 16.4961 90.6123 15.8711C91.3154 15.2363 91.667 14.3721 91.667 13.2783C91.667 12.1357 91.3398 11.252 90.6855 10.627C90.041 10.002 89.0742 9.67969 87.7852 9.66016H83.874V16.8086ZM105.524 28.293C103.269 28.293 101.438 27.585 100.031 26.1689C98.6348 24.7432 97.9365 22.8486 97.9365 20.4854V20.0459C97.9365 18.4639 98.2393 17.0527 98.8447 15.8125C99.46 14.5625 100.319 13.5908 101.423 12.8975C102.526 12.2041 103.757 11.8574 105.114 11.8574C107.272 11.8574 108.938 12.5459 110.109 13.9229C111.291 15.2998 111.882 17.248 111.882 19.7676V21.2031H101.525C101.633 22.5117 102.067 23.5469 102.829 24.3086C103.601 25.0703 104.567 25.4512 105.729 25.4512C107.36 25.4512 108.688 24.792 109.714 23.4736L111.633 25.3047C110.998 26.252 110.148 26.9893 109.084 27.5166C108.029 28.0342 106.843 28.293 105.524 28.293ZM105.1 14.7139C104.123 14.7139 103.332 15.0557 102.727 15.7393C102.131 16.4229 101.75 17.375 101.584 18.5957H108.366V18.332C108.288 17.1406 107.971 16.2422 107.414 15.6367C106.857 15.0215 106.086 14.7139 105.1 14.7139ZM124.128 28C123.972 27.6973 123.835 27.2041 123.718 26.5205C122.585 27.7021 121.198 28.293 119.558 28.293C117.966 28.293 116.667 27.8389 115.661 26.9307C114.655 26.0225 114.152 24.8994 114.152 23.5615C114.152 21.8721 114.777 20.5781 116.027 19.6797C117.287 18.7715 119.084 18.3174 121.418 18.3174H123.601V17.2773C123.601 16.457 123.371 15.8027 122.912 15.3145C122.453 14.8164 121.755 14.5674 120.817 14.5674C120.007 14.5674 119.343 14.7725 118.825 15.1826C118.308 15.583 118.049 16.0957 118.049 16.7207H114.489C114.489 15.8516 114.777 15.041 115.354 14.2891C115.93 13.5273 116.711 12.9316 117.697 12.502C118.693 12.0723 119.802 11.8574 121.022 11.8574C122.878 11.8574 124.357 12.3262 125.461 13.2637C126.564 14.1914 127.131 15.5 127.16 17.1895V24.3379C127.16 25.7637 127.36 26.9014 127.761 27.751V28H124.128ZM120.217 25.4365C120.92 25.4365 121.579 25.2656 122.194 24.9238C122.819 24.582 123.288 24.123 123.601 23.5469V20.5586H121.682C120.363 20.5586 119.372 20.7881 118.708 21.2471C118.044 21.7061 117.712 22.3555 117.712 23.1953C117.712 23.8789 117.937 24.4258 118.386 24.8359C118.845 25.2363 119.455 25.4365 120.217 25.4365ZM137.399 25.4512C138.288 25.4512 139.025 25.1924 139.611 24.6748C140.197 24.1572 140.51 23.5176 140.549 22.7559H143.903C143.864 23.7422 143.557 24.665 142.98 25.5244C142.404 26.374 141.623 27.0479 140.637 27.5459C139.65 28.0439 138.586 28.293 137.443 28.293C135.227 28.293 133.469 27.5752 132.17 26.1396C130.871 24.7041 130.222 22.7217 130.222 20.1924V19.8262C130.222 17.4141 130.866 15.4854 132.155 14.04C133.444 12.585 135.202 11.8574 137.429 11.8574C139.313 11.8574 140.847 12.4092 142.028 13.5127C143.22 14.6064 143.845 16.0469 143.903 17.834H140.549C140.51 16.9258 140.197 16.1787 139.611 15.5928C139.035 15.0068 138.298 14.7139 137.399 14.7139C136.247 14.7139 135.358 15.1338 134.733 15.9736C134.108 16.8037 133.791 18.0684 133.781 19.7676V20.3389C133.781 22.0576 134.089 23.3418 134.704 24.1914C135.329 25.0312 136.228 25.4512 137.399 25.4512ZM151.052 8.29785V12.1504H153.85V14.7871H151.052V23.6348C151.052 24.2402 151.169 24.6797 151.403 24.9531C151.647 25.2168 152.077 25.3486 152.692 25.3486C153.103 25.3486 153.518 25.2998 153.938 25.2021V27.9561C153.127 28.1807 152.346 28.293 151.594 28.293C148.859 28.293 147.492 26.7842 147.492 23.7666V14.7871H144.885V12.1504H147.492V8.29785H151.052ZM97.0869 63H93.3809L83.874 47.8682V63H80.168V41.6719H83.874L93.4102 56.8623V41.6719H97.0869V63ZM110.593 63C110.437 62.6973 110.3 62.2041 110.183 61.5205C109.05 62.7021 107.663 63.293 106.022 63.293C104.431 63.293 103.132 62.8389 102.126 61.9307C101.12 61.0225 100.617 59.8994 100.617 58.5615C100.617 56.8721 101.242 55.5781 102.492 54.6797C103.752 53.7715 105.549 53.3174 107.883 53.3174H110.065V52.2773C110.065 51.457 109.836 50.8027 109.377 50.3145C108.918 49.8164 108.22 49.5674 107.282 49.5674C106.472 49.5674 105.808 49.7725 105.29 50.1826C104.772 50.583 104.514 51.0957 104.514 51.7207H100.954C100.954 50.8516 101.242 50.041 101.818 49.2891C102.395 48.5273 103.176 47.9316 104.162 47.502C105.158 47.0723 106.267 46.8574 107.487 46.8574C109.343 46.8574 110.822 47.3262 111.926 48.2637C113.029 49.1914 113.596 50.5 113.625 52.1895V59.3379C113.625 60.7637 113.825 61.9014 114.226 62.751V63H110.593ZM106.682 60.4365C107.385 60.4365 108.044 60.2656 108.659 59.9238C109.284 59.582 109.753 59.123 110.065 58.5469V55.5586H108.146C106.828 55.5586 105.837 55.7881 105.173 56.2471C104.509 56.7061 104.177 57.3555 104.177 58.1953C104.177 58.8789 104.401 59.4258 104.851 59.8359C105.31 60.2363 105.92 60.4365 106.682 60.4365ZM121.813 43.2979V47.1504H124.611V49.7871H121.813V58.6348C121.813 59.2402 121.931 59.6797 122.165 59.9531C122.409 60.2168 122.839 60.3486 123.454 60.3486C123.864 60.3486 124.279 60.2998 124.699 60.2021V62.9561C123.889 63.1807 123.107 63.293 122.355 63.293C119.621 63.293 118.254 61.7842 118.254 58.7666V49.7871H115.646V47.1504H118.254V43.2979H121.813ZM131.13 63H127.57V47.1504H131.13V63ZM127.351 43.0342C127.351 42.4873 127.521 42.0332 127.863 41.6719C128.215 41.3105 128.713 41.1299 129.357 41.1299C130.002 41.1299 130.5 41.3105 130.852 41.6719C131.203 42.0332 131.379 42.4873 131.379 43.0342C131.379 43.5713 131.203 44.0205 130.852 44.3818C130.5 44.7334 130.002 44.9092 129.357 44.9092C128.713 44.9092 128.215 44.7334 127.863 44.3818C127.521 44.0205 127.351 43.5713 127.351 43.0342ZM140.607 58.4883L143.962 47.1504H147.639L142.146 63H139.055L133.518 47.1504H137.209L140.607 58.4883ZM156.647 63.293C154.392 63.293 152.561 62.585 151.154 61.1689C149.758 59.7432 149.06 57.8486 149.06 55.4854V55.0459C149.06 53.4639 149.362 52.0527 149.968 50.8125C150.583 49.5625 151.442 48.5908 152.546 47.8975C153.649 47.2041 154.88 46.8574 156.237 46.8574C158.396 46.8574 160.061 47.5459 161.232 48.9229C162.414 50.2998 163.005 52.248 163.005 54.7676V56.2031H152.648C152.756 57.5117 153.19 58.5469 153.952 59.3086C154.724 60.0703 155.69 60.4512 156.853 60.4512C158.483 60.4512 159.812 59.792 160.837 58.4736L162.756 60.3047C162.121 61.252 161.271 61.9893 160.207 62.5166C159.152 63.0342 157.966 63.293 156.647 63.293ZM156.223 49.7139C155.246 49.7139 154.455 50.0557 153.85 50.7393C153.254 51.4229 152.873 52.375 152.707 53.5957H159.489V53.332C159.411 52.1406 159.094 51.2422 158.537 50.6367C157.98 50.0215 157.209 49.7139 156.223 49.7139Z" fill="white"/>
<circle cx="31.2365" cy="35.8139" r="5.45429" fill="white"/>
<path fill-rule="evenodd" clip-rule="evenodd" d="M31.2366 24.7244C38.5597 24.7244 45.3627 25.7752 50.4921 27.541C56.6723 29.6687 60.4722 32.8938 60.4722 35.8141C60.4722 38.8572 56.4451 42.2834 49.8084 44.4823C44.7908 46.1447 38.1881 47.0125 31.2366 47.0125C24.1094 47.0125 17.3603 46.1979 12.2862 44.464C5.86661 42.2698 2 38.7993 2 35.8141C2 32.9175 5.62807 29.7173 11.7214 27.5929C16.87 25.7979 23.841 24.7244 31.2356 24.7244H31.2366Z" stroke="white" stroke-width="2.73408"/>
<path fill-rule="evenodd" clip-rule="evenodd" d="M21.583 30.3011C25.2415 23.9574 29.5502 18.5891 33.6425 15.0278C38.5731 10.7369 43.2653 9.0565 45.7949 10.5152C48.4312 12.0355 49.3873 17.2358 47.9766 24.0834C46.9112 29.2605 44.3633 35.4136 40.8905 41.4355C37.3299 47.6096 33.2528 53.0492 29.2162 56.5775C24.1084 61.0425 19.1703 62.6584 16.5843 61.167C14.075 59.721 13.1154 54.9785 14.3192 48.6386C15.3363 43.2818 17.8887 36.7068 21.5818 30.301L21.583 30.3011Z" stroke="white" stroke-width="2.73408"/>
<path fill-rule="evenodd" clip-rule="evenodd" d="M21.5915 41.4516C17.9227 35.115 15.4248 28.6998 14.3821 23.3759C13.1271 16.9613 14.0144 12.0568 16.5418 10.5938C19.1755 9.0691 24.1584 10.8378 29.3863 15.4798C33.339 18.9894 37.3978 24.2686 40.8808 30.2849C44.4517 36.4531 47.128 42.7021 48.1691 47.9612C49.4865 54.6165 48.4203 59.7015 45.8367 61.1971C43.3299 62.6483 38.7425 61.1119 33.8511 56.9026C29.7182 53.3463 25.2966 47.8511 21.5915 41.4515V41.4516Z" stroke="white" stroke-width="2.73408"/>
</svg>