<svg viewBox="0 0 159 50" fill="none" xmlns="http://www.w3.org/2000/svg">
<path d="M49.2084 13.6303C49.2064 13.1354 49.1992 12.6405 49.1865 12.1457C49.1567 11.0679 49.094 9.98008 48.9021 8.91416C48.7192 7.84496 48.3777 6.80906 47.8889 5.84069C46.8988 3.89518 45.3177 2.31341 43.3726 1.32246C42.4045 0.834213 41.3689 0.493053 40.3002 0.310231C39.2323 0.118325 38.1445 0.0546881 37.0666 0.0258526C36.5704 0.0119319 36.0763 0.00596597 35.5811 0.00298299C34.9934 0 34.4058 0 33.8171 0H15.3942C14.8056 0 14.2189 0 13.6313 0.00298299C13.1361 0.0069603 12.6409 0.0129263 12.1457 0.0258526C11.8763 0.0328129 11.6058 0.0427562 11.3354 0.0556824C10.525 0.0944613 9.71261 0.166053 8.91217 0.310231C8.11406 0.449096 7.33329 0.673793 6.58345 0.980408C5.32717 1.50044 4.18552 2.26267 3.22362 3.22362C2.45641 3.99036 1.81482 4.87321 1.32246 5.83969C0.821316 6.82408 0.504125 7.83034 0.310231 8.91317C0.118325 9.98008 0.0546881 11.0679 0.0258526 12.1447C0.011932 12.6419 0.00596598 13.1361 0.00298299 13.6303C0 14.2189 0 14.8066 0 15.3942V33.8171C0 34.4058 0 34.9934 0.00298299 35.5811C0.0069603 36.0762 0.0129263 36.5714 0.0258526 37.0656C0.0556824 38.1445 0.118325 39.2322 0.310231 40.2972C0.492766 41.367 0.833932 42.4035 1.32246 43.3726C2.31274 45.3187 3.89463 46.9006 5.84069 47.8909C6.82408 48.391 7.83034 48.7082 8.91317 48.9031C9.97909 49.095 11.0679 49.1586 12.1457 49.1875C12.6409 49.2004 13.1361 49.2064 13.6313 49.2093C14.2179 49.2133 14.8056 49.2123 15.3942 49.2123H33.8171C34.4038 49.2123 34.9924 49.2133 35.5801 49.2093C36.0753 49.2064 36.5694 49.2004 37.0646 49.1875C38.1435 49.1576 39.2323 49.095 40.2982 48.9031C41.367 48.7203 42.4025 48.3791 43.3707 47.8909C45.3162 46.9003 46.8977 45.3184 47.8879 43.3726C48.389 42.3882 48.7062 41.381 48.9011 40.2992C49.093 39.2332 49.1567 38.1454 49.1855 37.0666C49.1984 36.5724 49.2044 36.0772 49.2074 35.5821C49.2113 34.9944 49.2103 34.4068 49.2103 33.8181V15.3942C49.2103 14.8066 49.2103 14.2189 49.2074 13.6303H49.2084Z" fill="white"/>
<path d="M38.9952 30.3769L38.9922 30.3739C39.0459 30.1879 39.1016 30.004 39.1503 29.8141C41.1927 21.6765 36.2071 12.0553 27.7722 6.99023C31.4691 12.0017 33.1028 18.071 31.6501 23.3788C31.5208 23.8531 31.3657 24.3075 31.1937 24.749C30.9534 24.5942 30.7073 24.4486 30.4559 24.3124C30.4559 24.3124 22.0638 19.132 12.9696 9.96726C12.731 9.72663 17.819 17.2398 23.594 23.341C20.8736 21.8147 13.2908 16.2972 8.49118 11.9042C9.08082 12.8886 9.78281 13.8352 10.5534 14.747C14.5616 19.83 19.7897 26.1022 26.052 30.9188C21.6521 33.6114 15.4346 33.8202 9.24389 30.9217C7.72826 30.2099 6.28676 29.35 4.94043 28.3544C7.7086 32.7509 11.7409 36.2082 16.5085 38.2728C22.367 40.7905 28.1918 40.6194 32.5301 38.3146L32.5271 38.3196C32.547 38.3066 32.5718 38.2937 32.5927 38.2798C32.7707 38.1853 32.9477 38.0869 33.1197 37.9845C35.2048 36.9026 39.3223 35.8049 41.5317 40.1044C42.0737 41.1574 43.2241 35.5802 38.9962 30.3779L38.9952 30.3769Z" fill="#141640"/>
<path d="M67.8882 31.9369C68.273 35.3504 71.5294 37.5887 76.0516 37.5887C80.3481 37.5887 83.4465 35.3514 83.4465 32.2531C83.4465 29.5853 81.5692 27.9566 77.2498 26.8718L73.0667 25.8078C67.052 24.3163 64.3384 21.6018 64.3384 17.1254C64.3384 11.6078 69.155 7.78662 76.0069 7.78662C82.654 7.78662 87.38 11.6307 87.5391 17.1711H83.1293C82.7902 13.7784 80.0309 11.6983 75.8935 11.6983C71.7999 11.6983 68.9511 13.8013 68.9511 16.8758C68.9511 19.2721 70.7151 20.698 75.0563 21.8057L78.5394 22.7105C85.278 24.3611 88.0363 26.9841 88.0363 31.7102C88.0363 37.7259 83.2645 41.5013 75.6668 41.5013C68.6121 41.5013 63.7955 37.7477 63.4336 31.9359H67.8882V31.9369ZM116.046 40.9584H111.614L106.435 22.9143H106.346L101.189 40.9584H96.7585L90.2009 17.3282H94.4964L99.0644 36.3H99.1549L104.31 17.3282H108.472L113.672 36.3H113.763L118.33 17.3282H122.581L116.046 40.9584ZM125.442 10.9744C125.442 9.55056 126.619 8.39714 128.043 8.39714C129.491 8.39714 130.666 9.55056 130.666 10.9744C130.666 12.3993 129.491 13.5746 128.043 13.5746C127.355 13.5707 126.696 13.2955 126.209 12.8087C125.722 12.3219 125.447 11.6628 125.443 10.9744H125.442ZM125.895 17.3282H130.214V40.9584H125.895V17.3282ZM158.418 20.8113V17.3282H153.851V11.6754H149.553V17.3282H141.299V15.2481C141.32 13.1451 142.134 12.2631 144.08 12.2631C144.712 12.2631 145.345 12.3317 145.865 12.4222V9.02854C145.11 8.91041 144.347 8.84991 143.582 8.84757C138.969 8.84757 137.024 10.7706 137.024 15.1795V17.3272H133.723V20.8103H137.024V40.9574H141.32V20.8113H149.554V34.7618C149.554 39.3297 151.294 41.0927 155.818 41.0927C156.79 41.0927 157.898 41.0251 158.396 40.9127V37.3848C157.855 37.4516 157.312 37.4895 156.767 37.4982C154.755 37.4982 153.851 36.5486 153.851 34.4227V20.8113H158.418Z" fill="white"/>
</svg>